<?xml version="1.0" encoding="UTF-8" standalone="no"?>
<svg
   xmlns:svg="http://www.w3.org/2000/svg"
   xmlns="http://www.w3.org/2000/svg"
   width="324"
   height="336"
   viewBox="0 0 324 336"
   fill="none"
   version="1.1"
   id="svg399">
  <g
     clip-path="url(#clip0)"
     id="g392">
    <g
       opacity="0.76"
       id="g4"
       style="opacity:1;fill:#f4b248;fill-opacity:0.60000002">
      <path
         opacity="0.76"
         d="M268.889 143.104C268.889 143.104 271.912 132.892 282.166 111.258C296.201 81.6818 276.068 48.4001 236.046 31.0547C189.176 10.7169 128.891 18.2936 85.4191 30.7242C49.4655 40.9975 34.6206 67.842 28.1478 94.6082C24.8634 108.161 24.2449 122.036 22.1802 135.771C19.4186 154.091 13.4162 172.706 8.15424 190.643C1.79463 212.329 -4.50398 236.799 4.46916 260.233C32.1204 332.286 184.002 335.391 243.817 302.031C277.61 283.181 290.068 255.466 278.664 223.116C270.161 199.176 261.955 166.478 268.889 143.104Z"
         fill="#FEEFE8"
         id="path2"
         style="fill:#f4b248;opacity:1;fill-opacity:0.60000002" />
    </g>
    <path
       opacity="0.3"
       d="M231.62 80.0638C231.788 79.9823 231.926 79.8489 232.012 79.6835C232.098 79.5181 232.129 79.3293 232.1 79.145C232.071 78.9608 231.983 78.7908 231.849 78.6602C231.716 78.5296 231.544 78.4453 231.359 78.4197L228.057 78.9416L227.961 78.3066L231.263 77.7934C231.399 77.8154 231.538 77.805 231.669 77.7631C231.8 77.7212 231.919 77.6489 232.016 77.5523C232.114 77.4556 232.187 77.3372 232.23 77.2069C232.273 77.0765 232.285 76.9378 232.264 76.8021C232.243 76.6665 232.19 76.5377 232.11 76.4263C232.029 76.3149 231.924 76.2242 231.801 76.1613C231.679 76.0985 231.544 76.0655 231.406 76.0649C231.269 76.0643 231.133 76.0962 231.01 76.158L227.7 76.6713L226.994 72.1305L217.089 63.1794L87.2224 301.527L97.1713 308.242L259.855 282.963L258.043 271.298L261.345 270.785C261.557 270.743 261.746 270.623 261.875 270.45C262.004 270.276 262.063 270.061 262.042 269.846C262 269.632 261.878 269.442 261.703 269.313C261.527 269.184 261.309 269.126 261.092 269.15L257.79 269.663L257.686 269.037L260.996 268.523C261.164 268.442 261.302 268.308 261.388 268.143C261.475 267.978 261.505 267.789 261.476 267.605C261.447 267.42 261.359 267.25 261.225 267.12C261.092 266.989 260.92 266.905 260.735 266.879L257.433 267.393L256.475 261.303L259.785 260.79C259.954 260.709 260.091 260.575 260.177 260.41C260.264 260.244 260.294 260.056 260.265 259.871C260.236 259.687 260.148 259.517 260.015 259.387C259.881 259.256 259.709 259.172 259.524 259.146L256.222 259.659L256.127 259.033L259.428 258.52C259.596 258.439 259.734 258.306 259.82 258.141C259.907 257.977 259.939 257.788 259.911 257.604C259.882 257.42 259.796 257.25 259.663 257.119C259.531 256.988 259.36 256.903 259.176 256.876L255.865 257.389L254.916 251.3L258.217 250.787C258.385 250.706 258.523 250.573 258.61 250.408C258.696 250.243 258.728 250.055 258.7 249.871C258.671 249.687 258.585 249.517 258.452 249.386C258.32 249.255 258.149 249.169 257.965 249.142L254.654 249.656L254.558 249.029L257.869 248.516C258.005 248.537 258.143 248.526 258.274 248.483C258.404 248.44 258.523 248.367 258.619 248.27C258.716 248.173 258.789 248.054 258.831 247.924C258.873 247.793 258.884 247.655 258.862 247.519C258.84 247.384 258.787 247.256 258.706 247.145C258.626 247.034 258.52 246.944 258.397 246.881C258.275 246.819 258.14 246.787 258.003 246.787C257.865 246.786 257.73 246.819 257.607 246.881L254.306 247.394L253.347 241.261L256.658 240.748C256.822 240.665 256.956 240.531 257.04 240.367C257.124 240.203 257.153 240.017 257.124 239.835C257.095 239.654 257.009 239.486 256.878 239.356C256.747 239.226 256.579 239.141 256.397 239.113L253.095 239.626L252.999 238.991L256.301 238.478C256.534 238.44 256.743 238.311 256.881 238.119C257.019 237.927 257.075 237.689 257.037 237.456C256.999 237.223 256.87 237.014 256.678 236.876C256.486 236.739 256.247 236.682 256.013 236.721L252.703 237.234L251.753 231.101L255.055 230.588C255.219 230.505 255.353 230.373 255.437 230.209C255.522 230.046 255.552 229.86 255.524 229.679C255.496 229.497 255.411 229.329 255.281 229.198C255.152 229.068 254.984 228.982 254.802 228.953L251.492 229.466L251.396 228.831L254.698 228.317C254.833 228.339 254.972 228.329 255.103 228.287C255.234 228.245 255.353 228.173 255.451 228.076C255.549 227.98 255.622 227.861 255.665 227.731C255.708 227.601 255.719 227.462 255.698 227.326C255.677 227.191 255.625 227.062 255.544 226.95C255.464 226.839 255.358 226.748 255.236 226.685C255.114 226.623 254.978 226.59 254.841 226.589C254.704 226.588 254.568 226.62 254.445 226.682L251.143 227.195L250.185 221.063L253.487 220.549C253.623 220.571 253.762 220.561 253.892 220.519C254.023 220.477 254.142 220.405 254.24 220.308C254.338 220.212 254.411 220.093 254.454 219.963C254.497 219.833 254.508 219.694 254.487 219.558C254.466 219.423 254.414 219.294 254.333 219.182C254.253 219.071 254.147 218.98 254.025 218.917C253.903 218.855 253.768 218.822 253.63 218.821C253.493 218.82 253.357 218.852 253.234 218.914L249.932 219.427L249.828 218.801L253.138 218.279C253.303 218.196 253.437 218.064 253.521 217.9C253.605 217.737 253.635 217.551 253.607 217.37C253.579 217.188 253.494 217.02 253.365 216.89C253.235 216.759 253.067 216.673 252.886 216.644L249.575 217.157L248.626 211.024L251.927 210.511C252.092 210.428 252.226 210.296 252.31 210.132C252.394 209.969 252.424 209.783 252.396 209.602C252.368 209.42 252.283 209.252 252.154 209.122C252.024 208.991 251.856 208.905 251.675 208.876L248.364 209.389L248.268 208.763L251.57 208.249C251.705 208.269 251.843 208.257 251.972 208.214C252.101 208.171 252.219 208.098 252.315 208.002C252.411 207.905 252.483 207.787 252.525 207.658C252.567 207.529 252.578 207.391 252.557 207.257C252.537 207.122 252.485 206.994 252.406 206.884C252.327 206.773 252.223 206.682 252.102 206.619C251.981 206.555 251.848 206.521 251.711 206.519C251.575 206.517 251.44 206.546 251.318 206.605L248.016 207.119L247.058 201.029L250.359 200.516C250.494 200.536 250.632 200.524 250.761 200.481C250.89 200.438 251.008 200.365 251.104 200.268C251.2 200.172 251.272 200.054 251.314 199.925C251.356 199.795 251.367 199.658 251.347 199.523C251.326 199.389 251.274 199.261 251.195 199.15C251.116 199.04 251.012 198.949 250.891 198.886C250.771 198.822 250.637 198.788 250.5 198.786C250.364 198.783 250.229 198.813 250.107 198.872L246.805 199.385L246.7 198.759L250.011 198.246C250.146 198.267 250.285 198.255 250.416 198.212C250.546 198.17 250.665 198.097 250.761 198C250.858 197.902 250.931 197.784 250.973 197.653C251.015 197.523 251.026 197.384 251.004 197.249C250.982 197.114 250.929 196.985 250.848 196.874C250.768 196.764 250.662 196.673 250.539 196.611C250.417 196.549 250.282 196.516 250.145 196.516C250.007 196.516 249.872 196.548 249.749 196.61L246.448 197.124L245.489 190.991L248.8 190.478C248.968 190.396 249.105 190.263 249.192 190.097C249.278 189.932 249.309 189.743 249.28 189.559C249.25 189.375 249.162 189.205 249.029 189.074C248.896 188.943 248.724 188.859 248.539 188.834L245.237 189.356L245.141 188.721L248.443 188.207C248.578 188.229 248.717 188.219 248.848 188.177C248.979 188.135 249.098 188.063 249.196 187.966C249.293 187.869 249.367 187.751 249.41 187.621C249.453 187.49 249.464 187.352 249.443 187.216C249.422 187.08 249.37 186.952 249.289 186.84C249.209 186.729 249.103 186.638 248.981 186.575C248.859 186.512 248.723 186.479 248.586 186.479C248.448 186.478 248.313 186.51 248.19 186.572L244.888 187.085L243.93 180.953L247.232 180.439C247.367 180.461 247.506 180.451 247.637 180.409C247.768 180.367 247.887 180.295 247.985 180.198C248.083 180.101 248.156 179.983 248.199 179.853C248.242 179.722 248.253 179.584 248.232 179.448C248.211 179.312 248.159 179.184 248.078 179.072C247.998 178.961 247.892 178.87 247.77 178.807C247.648 178.744 247.512 178.711 247.375 178.711C247.238 178.71 247.102 178.742 246.979 178.804L243.677 179.317L243.573 178.682L246.883 178.169C247.048 178.086 247.181 177.952 247.265 177.788C247.349 177.624 247.378 177.438 247.349 177.256C247.32 177.074 247.234 176.906 247.103 176.777C246.973 176.647 246.804 176.562 246.622 176.534L243.32 177.047L242.362 170.914L245.672 170.401C245.808 170.422 245.947 170.41 246.077 170.368C246.208 170.325 246.326 170.252 246.423 170.155C246.52 170.058 246.592 169.939 246.634 169.808C246.677 169.678 246.687 169.539 246.666 169.404C246.644 169.269 246.591 169.14 246.51 169.03C246.429 168.919 246.323 168.828 246.201 168.766C246.079 168.704 245.943 168.671 245.806 168.671C245.669 168.671 245.533 168.703 245.411 168.765L242.109 169.279L242.013 168.644L245.315 168.13C245.527 168.088 245.716 167.969 245.845 167.795C245.974 167.621 246.034 167.406 246.012 167.191C245.97 166.977 245.849 166.787 245.673 166.659C245.497 166.53 245.279 166.471 245.063 166.495L241.752 167.008L240.802 160.876L244.104 160.362C244.317 160.32 244.505 160.201 244.634 160.027C244.763 159.853 244.823 159.638 244.801 159.423C244.759 159.209 244.638 159.019 244.462 158.89C244.286 158.762 244.068 158.703 243.852 158.727L240.541 159.24L240.445 158.614L243.747 158.101C243.915 158.02 244.052 157.887 244.139 157.722C244.226 157.558 244.258 157.369 244.229 157.185C244.201 157.001 244.114 156.831 243.982 156.7C243.85 156.569 243.679 156.484 243.494 156.457L240.193 156.97L239.234 150.881L242.536 150.368C242.671 150.387 242.809 150.375 242.938 150.332C243.067 150.289 243.184 150.216 243.28 150.12C243.376 150.023 243.448 149.906 243.491 149.776C243.533 149.647 243.544 149.509 243.523 149.375C243.503 149.24 243.451 149.113 243.372 149.002C243.293 148.891 243.189 148.8 243.068 148.737C242.947 148.674 242.814 148.639 242.677 148.637C242.541 148.635 242.406 148.664 242.283 148.723L238.982 149.237L238.886 148.61L242.188 148.097C242.356 148.016 242.493 147.884 242.58 147.719C242.667 147.554 242.698 147.366 242.67 147.182C242.642 146.998 242.555 146.828 242.423 146.697C242.29 146.565 242.119 146.48 241.935 146.453L238.625 146.966L237.675 140.877L240.977 140.364C241.145 140.283 241.282 140.15 241.369 139.986C241.456 139.821 241.487 139.633 241.459 139.449C241.431 139.265 241.344 139.094 241.212 138.963C241.08 138.832 240.909 138.747 240.724 138.72L237.414 139.233L237.318 138.607L240.62 138.093C240.755 138.115 240.894 138.105 241.025 138.063C241.156 138.021 241.275 137.949 241.373 137.852C241.47 137.756 241.544 137.637 241.587 137.507C241.63 137.377 241.641 137.238 241.62 137.102C241.599 136.967 241.546 136.838 241.466 136.726C241.386 136.615 241.28 136.524 241.158 136.461C241.036 136.399 240.9 136.366 240.763 136.365C240.625 136.364 240.49 136.396 240.367 136.458L237.065 136.971L236.107 130.839L239.409 130.325C239.623 130.283 239.813 130.162 239.942 129.987C240.071 129.811 240.129 129.594 240.106 129.377C240.09 129.269 240.052 129.166 239.996 129.072C239.939 128.979 239.864 128.898 239.776 128.834C239.687 128.77 239.587 128.724 239.48 128.699C239.374 128.675 239.264 128.672 239.156 128.69L235.854 129.203L235.75 128.568L239.06 128.055C239.225 127.972 239.358 127.839 239.442 127.674C239.526 127.51 239.555 127.324 239.526 127.142C239.497 126.961 239.411 126.793 239.28 126.663C239.15 126.533 238.981 126.448 238.799 126.42L235.497 126.933L234.539 120.8L237.849 120.287C237.964 120.271 238.075 120.232 238.175 120.173C238.274 120.114 238.361 120.036 238.43 119.942C238.499 119.849 238.549 119.743 238.576 119.631C238.604 119.518 238.608 119.401 238.59 119.287C238.574 119.18 238.537 119.077 238.481 118.984C238.425 118.891 238.351 118.811 238.263 118.747C238.176 118.683 238.076 118.637 237.971 118.612C237.865 118.586 237.756 118.582 237.649 118.599L234.338 119.113L234.234 118.417L237.536 117.904C237.671 117.926 237.81 117.915 237.941 117.873C238.072 117.831 238.191 117.759 238.289 117.662C238.386 117.566 238.46 117.447 238.503 117.317C238.546 117.187 238.557 117.048 238.536 116.912C238.515 116.777 238.462 116.648 238.382 116.537C238.302 116.425 238.196 116.334 238.074 116.271C237.952 116.209 237.816 116.176 237.679 116.175C237.541 116.174 237.406 116.206 237.283 116.268L233.981 116.781L233.023 110.649L236.325 110.136C236.46 110.158 236.599 110.147 236.73 110.105C236.861 110.063 236.98 109.991 237.078 109.894C237.175 109.798 237.249 109.679 237.292 109.549C237.335 109.419 237.346 109.28 237.325 109.144C237.304 109.009 237.251 108.88 237.171 108.768C237.091 108.657 236.985 108.566 236.863 108.503C236.741 108.441 236.605 108.408 236.468 108.407C236.33 108.406 236.195 108.438 236.072 108.5L232.77 109.013L232.666 108.387L235.976 107.865C236.083 107.849 236.186 107.812 236.279 107.756C236.372 107.7 236.453 107.626 236.517 107.539C236.581 107.452 236.627 107.352 236.652 107.247C236.678 107.142 236.682 107.033 236.664 106.926C236.622 106.712 236.501 106.522 236.325 106.393C236.149 106.264 235.932 106.206 235.715 106.23L232.413 106.743L231.455 100.61L234.765 100.097C234.872 100.081 234.976 100.044 235.068 99.9883C235.161 99.9323 235.242 99.8585 235.306 99.7711C235.37 99.6837 235.416 99.5844 235.441 99.4791C235.467 99.3738 235.471 99.2645 235.453 99.1576C235.411 98.944 235.29 98.754 235.114 98.6252C234.938 98.4963 234.721 98.438 234.504 98.4618L231.202 98.975L231.106 98.3487L234.408 97.8354C234.576 97.7545 234.713 97.6219 234.8 97.4572C234.887 97.2924 234.919 97.1042 234.89 96.9202C234.862 96.7361 234.775 96.566 234.643 96.4348C234.511 96.3037 234.34 96.2183 234.155 96.1914L230.845 96.7046L229.878 90.5806L233.18 90.0674C233.348 89.9865 233.485 89.8539 233.572 89.6891C233.659 89.5244 233.69 89.3361 233.662 89.1521C233.634 88.9681 233.547 88.798 233.415 88.6668C233.282 88.5356 233.112 88.4503 232.927 88.4233L229.617 88.9366L229.521 88.3103L232.831 87.797C232.967 87.8179 233.106 87.8066 233.236 87.7638C233.366 87.721 233.485 87.648 233.582 87.5509C233.679 87.4537 233.751 87.3351 233.793 87.2046C233.835 87.0742 233.846 86.9356 233.824 86.8003C233.803 86.6649 233.749 86.5366 233.669 86.4257C233.588 86.3148 233.482 86.2246 233.36 86.1624C233.237 86.1001 233.102 86.0676 232.965 86.0674C232.828 86.0673 232.692 86.0996 232.57 86.1617L229.268 86.6749L228.31 80.5422L231.62 80.0638Z"
       fill="black"
       id="path6" />
    <path
       d="M92.4756 303.806L243.32 280.319L209.658 64.3363L58.8046 87.7709C56.9565 88.0599 55.2989 89.0698 54.1962 90.5787C53.0936 92.0875 52.636 93.9718 52.9241 95.8173L84.3911 297.925C84.5321 298.843 84.8536 299.723 85.337 300.516C85.8204 301.309 86.4561 301.999 87.2076 302.546C87.9591 303.092 88.8114 303.485 89.7155 303.701C90.6196 303.918 91.5577 303.953 92.4756 303.806Z"
       fill="#1A2E35"
       stroke="#1A2E35"
       stroke-miterlimit="10"
       stroke-linecap="round"
       id="path8" />
    <path
       d="M95.2553 296.261L86.6473 297.599C86.0423 297.693 85.4246 297.544 84.9302 297.183C84.4358 296.822 84.1051 296.28 84.0109 295.676L80.9819 276.251C80.8877 275.647 81.0377 275.03 81.3989 274.537C81.7601 274.043 82.3028 273.713 82.9078 273.619L91.5159 272.28L95.2553 296.261Z"
       fill="white"
       stroke="#1A2E35"
       stroke-miterlimit="10"
       stroke-linecap="round"
       id="path10" />
    <path
       d="M91.3305 271.035L82.7225 272.374C82.1175 272.468 81.4998 272.318 81.0054 271.957C80.511 271.597 80.1803 271.055 80.0861 270.451L77.0571 251.025C76.9629 250.421 77.1129 249.805 77.4741 249.311C77.8352 248.817 78.378 248.487 78.983 248.393L87.5911 247.055L91.3305 271.035Z"
       fill="#F45D48"
       stroke="#1A2E35"
       stroke-miterlimit="10"
       stroke-linecap="round"
       id="path12" />
    <path
       d="M87.407 245.826L78.7989 247.164C78.1939 247.258 77.5762 247.108 77.0818 246.748C76.5874 246.387 76.2568 245.845 76.1626 245.241L73.1335 225.816C73.0393 225.212 73.1893 224.595 73.5505 224.101C73.9117 223.608 74.4545 223.278 75.0595 223.183L83.6675 221.845L87.407 245.826Z"
       fill="white"
       stroke="#1A2E35"
       stroke-miterlimit="10"
       stroke-linecap="round"
       id="path14" />
    <path
       d="M83.4821 220.609L74.8741 221.947C74.2691 222.041 73.6514 221.892 73.157 221.531C72.6626 221.17 72.332 220.628 72.2378 220.024L69.202 200.556C69.1078 199.952 69.2578 199.335 69.619 198.841C69.9802 198.348 70.523 198.018 71.128 197.924L79.736 196.585L83.4821 220.609Z"
       fill="#F45D48"
       stroke="#1A2E35"
       stroke-miterlimit="10"
       stroke-linecap="round"
       id="path16" />
    <path
       d="M67.2463 172.732L72.3949 171.932L59.2663 87.7013L217.089 63.1794L250.786 279.206L92.9373 303.701L76.1323 195.923L70.9836 196.723C70.381 196.811 69.7682 196.657 69.2787 196.295C68.7892 195.933 68.4626 195.393 68.3701 194.792L65.3384 175.368C65.2452 174.766 65.3933 174.152 65.7504 173.659C66.1075 173.166 66.645 172.833 67.2463 172.732Z"
       fill="white"
       stroke="#1A2E35"
       stroke-miterlimit="10"
       stroke-linecap="round"
       id="path18" />
    <path
       opacity="0.5"
       d="M84.121 133.727L84.635 145.531L143.535 135.936L141.993 126.054L84.121 133.727Z"
       fill="#F45D48"
       id="path20" />
    <path
       d="M208.316 76.419C208.411 77.0204 208.683 77.5801 209.097 78.0274C209.51 78.4747 210.047 78.7895 210.64 78.9321C211.233 79.0747 211.855 79.0387 212.427 78.8285C212.999 78.6184 213.496 78.2436 213.855 77.7515C214.214 77.2593 214.419 76.672 214.444 76.0637C214.469 75.4554 214.312 74.8534 213.995 74.3337C213.677 73.8141 213.212 73.4002 212.659 73.1443C212.105 72.8884 211.489 72.802 210.886 72.896C210.486 72.9585 210.101 73.0992 209.755 73.3102C209.409 73.5212 209.108 73.7982 208.87 74.1254C208.631 74.4526 208.459 74.8236 208.364 75.2172C208.269 75.6107 208.253 76.0191 208.316 76.419Z"
       fill="#1A2E35"
       stroke="#1A2E35"
       stroke-miterlimit="10"
       stroke-linecap="round"
       id="path22" />
    <path
       d="M211.679 75.4621L220.896 74.0529C221.108 74.0088 221.297 73.8871 221.424 73.7118C221.551 73.5364 221.608 73.32 221.584 73.1047C221.54 72.8927 221.418 72.7048 221.243 72.5777C221.067 72.4506 220.85 72.3935 220.635 72.4175L211.426 73.8441C211.212 73.8864 211.022 74.0072 210.893 74.1828C210.764 74.3583 210.706 74.5758 210.729 74.7923C210.777 75.0011 210.901 75.1849 211.076 75.3085C211.251 75.4321 211.466 75.4868 211.679 75.4621Z"
       fill="white"
       stroke="#1A2E35"
       stroke-miterlimit="10"
       stroke-linecap="round"
       id="path24" />
    <path
       d="M212.036 77.7325L221.244 76.2972C221.458 76.2549 221.649 76.1341 221.778 75.9586C221.907 75.783 221.965 75.5655 221.941 75.349C221.897 75.137 221.775 74.9491 221.6 74.822C221.424 74.6949 221.207 74.6378 220.992 74.6618L211.784 76.0884C211.57 76.1307 211.379 76.2515 211.25 76.4271C211.121 76.6026 211.063 76.8201 211.087 77.0366C211.129 77.2502 211.25 77.4402 211.426 77.5691C211.602 77.6979 211.819 77.7562 212.036 77.7325Z"
       fill="white"
       stroke="#1A2E35"
       stroke-miterlimit="10"
       stroke-linecap="round"
       id="path26" />
    <path
       d="M209.841 86.4574C209.934 87.0575 210.204 87.6164 210.615 88.0641C211.026 88.5117 211.56 88.828 212.15 88.9732C212.741 89.1185 213.361 89.0861 213.934 88.8802C214.506 88.6743 215.004 88.3041 215.366 87.8161C215.728 87.3281 215.938 86.7442 215.968 86.1377C215.999 85.5312 215.849 84.9292 215.538 84.4075C215.226 83.8857 214.768 83.4675 214.219 83.2054C213.67 82.9433 213.056 82.849 212.454 82.9344C212.05 82.9918 211.661 83.1288 211.31 83.3375C210.959 83.5462 210.653 83.8225 210.41 84.1503C210.167 84.478 209.991 84.8508 209.893 85.2468C209.796 85.6429 209.778 86.0544 209.841 86.4574Z"
       fill="#1A2E35"
       stroke="#1A2E35"
       stroke-miterlimit="10"
       stroke-linecap="round"
       id="path28" />
    <path
       d="M213.247 85.5005L222.455 84.0652C222.669 84.023 222.86 83.9021 222.989 83.7266C223.118 83.551 223.176 83.3335 223.152 83.1171C223.108 82.905 222.986 82.7171 222.811 82.59C222.635 82.4629 222.418 82.4058 222.203 82.4298L212.986 83.8564C212.773 83.9006 212.585 84.0222 212.458 84.1976C212.331 84.3729 212.273 84.5894 212.297 84.8046C212.34 85.0182 212.461 85.2083 212.637 85.3371C212.812 85.466 213.03 85.5243 213.247 85.5005Z"
       fill="white"
       stroke="#1A2E35"
       stroke-miterlimit="10"
       stroke-linecap="round"
       id="path30" />
    <path
       d="M213.596 87.7622L222.813 86.3356C222.921 86.3198 223.025 86.2825 223.118 86.226C223.212 86.1694 223.293 86.0948 223.357 86.0064C223.421 85.9181 223.467 85.8178 223.492 85.7115C223.516 85.6052 223.519 85.495 223.501 85.3874C223.459 85.1755 223.339 84.9868 223.165 84.8581C222.991 84.7295 222.775 84.6701 222.56 84.6915L213.325 86.1268C213.217 86.1427 213.113 86.1799 213.02 86.2365C212.926 86.293 212.845 86.3677 212.781 86.456C212.717 86.5444 212.671 86.6447 212.647 86.751C212.622 86.8573 212.619 86.9675 212.637 87.075C212.653 87.1839 212.691 87.2884 212.748 87.3824C212.805 87.4764 212.881 87.5579 212.97 87.6221C213.059 87.6863 213.161 87.7317 213.268 87.7558C213.376 87.7799 213.487 87.7821 213.596 87.7622Z"
       fill="white"
       stroke="#1A2E35"
       stroke-miterlimit="10"
       stroke-linecap="round"
       id="path32" />
    <path
       d="M211.444 96.4871C211.529 97.0905 211.792 97.6549 212.199 98.109C212.606 98.5631 213.139 98.8864 213.73 99.038C214.321 99.1896 214.944 99.1627 215.52 98.9607C216.095 98.7587 216.598 98.3906 216.964 97.9031C217.331 97.4156 217.544 96.8306 217.577 96.2221C217.61 95.6136 217.461 95.009 217.15 94.4849C216.839 93.9607 216.379 93.5406 215.828 93.2776C215.278 93.0146 214.661 92.9207 214.057 93.0076C213.249 93.1239 212.52 93.5556 212.03 94.2079C211.54 94.8601 211.329 95.6798 211.444 96.4871Z"
       fill="#1A2E35"
       stroke="#1A2E35"
       stroke-miterlimit="10"
       stroke-linecap="round"
       id="path34" />
    <path
       d="M214.806 95.5303L224.024 94.1036C224.236 94.0595 224.424 93.9379 224.551 93.7625C224.679 93.5872 224.736 93.3707 224.712 93.1555C224.697 93.0478 224.661 92.9443 224.605 92.851C224.549 92.7577 224.475 92.6766 224.387 92.6125C224.3 92.5483 224.2 92.5025 224.094 92.4777C223.988 92.453 223.878 92.4498 223.771 92.4683L214.554 93.8949C214.446 93.9107 214.342 93.948 214.248 94.0045C214.155 94.061 214.074 94.1357 214.01 94.2241C213.945 94.3124 213.9 94.4127 213.875 94.519C213.85 94.6253 213.847 94.7355 213.866 94.843C213.88 94.9507 213.917 95.0542 213.972 95.1475C214.028 95.2408 214.102 95.3219 214.19 95.3861C214.278 95.4502 214.378 95.496 214.484 95.5208C214.589 95.5455 214.699 95.5488 214.806 95.5303Z"
       fill="white"
       stroke="#1A2E35"
       stroke-miterlimit="10"
       stroke-linecap="round"
       id="path36" />
    <path
       d="M215.164 97.8006L224.372 96.3741C224.586 96.3318 224.776 96.211 224.905 96.0354C225.034 95.8599 225.093 95.6424 225.069 95.4259C225.027 95.2123 224.906 95.0223 224.73 94.8934C224.554 94.7646 224.336 94.7062 224.119 94.73L214.911 96.1653C214.697 96.2076 214.507 96.3284 214.378 96.5039C214.249 96.6795 214.19 96.897 214.214 97.1135C214.258 97.3255 214.38 97.5134 214.556 97.6405C214.731 97.7676 214.948 97.8247 215.164 97.8006Z"
       fill="white"
       stroke="#1A2E35"
       stroke-miterlimit="10"
       stroke-linecap="round"
       id="path38" />
    <path
       d="M213.003 106.526C213.089 107.129 213.352 107.693 213.759 108.147C214.166 108.602 214.698 108.925 215.289 109.076C215.881 109.228 216.503 109.201 217.079 108.999C217.655 108.797 218.158 108.429 218.524 107.942C218.89 107.454 219.103 106.869 219.136 106.261C219.169 105.652 219.021 105.047 218.709 104.523C218.398 103.999 217.938 103.579 217.388 103.316C216.837 103.053 216.221 102.959 215.617 103.046C215.216 103.103 214.83 103.237 214.482 103.443C214.134 103.649 213.829 103.921 213.587 104.244C213.344 104.567 213.167 104.935 213.067 105.327C212.967 105.718 212.945 106.126 213.003 106.526Z"
       fill="#1A2E35"
       stroke="#1A2E35"
       stroke-miterlimit="10"
       stroke-linecap="round"
       id="path40" />
    <path
       d="M216.375 105.569L225.583 104.142C225.797 104.1 225.987 103.979 226.116 103.803C226.245 103.628 226.304 103.41 226.28 103.194C226.238 102.98 226.117 102.79 225.941 102.661C225.765 102.533 225.547 102.474 225.33 102.498L216.122 103.933C215.908 103.976 215.718 104.096 215.589 104.272C215.46 104.448 215.401 104.665 215.425 104.881C215.469 105.093 215.591 105.281 215.767 105.409C215.942 105.536 216.159 105.593 216.375 105.569Z"
       fill="white"
       stroke="#1A2E35"
       stroke-miterlimit="10"
       stroke-linecap="round"
       id="path42" />
    <path
       d="M216.732 107.839L225.94 106.404C226.152 106.362 226.341 106.242 226.47 106.068C226.599 105.895 226.659 105.679 226.637 105.464C226.595 105.251 226.474 105.061 226.298 104.932C226.122 104.803 225.904 104.745 225.688 104.768L216.47 106.238C216.363 106.254 216.26 106.291 216.167 106.347C216.074 106.403 215.994 106.477 215.93 106.565C215.866 106.652 215.82 106.751 215.794 106.857C215.769 106.962 215.765 107.071 215.782 107.178C215.832 107.385 215.956 107.567 216.131 107.689C216.306 107.811 216.52 107.864 216.732 107.839Z"
       fill="white"
       stroke="#1A2E35"
       stroke-miterlimit="10"
       stroke-linecap="round"
       id="path44" />
    <path
       d="M214.571 116.564C214.658 117.169 214.924 117.734 215.333 118.188C215.743 118.641 216.278 118.963 216.872 119.112C217.465 119.261 218.089 119.231 218.665 119.024C219.241 118.818 219.743 118.445 220.106 117.954C220.469 117.462 220.677 116.874 220.705 116.263C220.732 115.653 220.577 115.048 220.259 114.526C219.941 114.004 219.475 113.588 218.92 113.332C218.365 113.075 217.746 112.989 217.141 113.084C216.341 113.211 215.623 113.647 215.142 114.298C214.661 114.949 214.456 115.763 214.571 116.564Z"
       fill="#1A2E35"
       stroke="#1A2E35"
       stroke-miterlimit="10"
       stroke-linecap="round"
       id="path46" />
    <path
       d="M217.934 115.607L227.151 114.172C227.363 114.13 227.552 114.01 227.681 113.836C227.81 113.663 227.87 113.447 227.848 113.232C227.806 113.019 227.685 112.829 227.509 112.7C227.333 112.571 227.115 112.513 226.898 112.536L217.681 113.972C217.469 114.016 217.281 114.138 217.154 114.313C217.026 114.488 216.969 114.705 216.993 114.92C217.009 115.027 217.046 115.13 217.102 115.223C217.158 115.315 217.232 115.396 217.32 115.46C217.407 115.524 217.507 115.57 217.612 115.595C217.717 115.62 217.827 115.624 217.934 115.607Z"
       fill="white"
       stroke="#1A2E35"
       stroke-miterlimit="10"
       stroke-linecap="round"
       id="path48" />
    <path
       d="M218.291 117.877L227.508 116.442C227.721 116.398 227.909 116.276 228.036 116.101C228.163 115.926 228.221 115.709 228.197 115.494C228.152 115.282 228.03 115.094 227.855 114.967C227.679 114.84 227.462 114.783 227.247 114.807L218.039 116.233C217.825 116.276 217.634 116.396 217.505 116.572C217.376 116.748 217.318 116.965 217.342 117.182C217.384 117.395 217.505 117.585 217.681 117.714C217.857 117.843 218.074 117.901 218.291 117.877Z"
       fill="white"
       stroke="#1A2E35"
       stroke-miterlimit="10"
       stroke-linecap="round"
       id="path50" />
    <path
       d="M216.139 126.602C216.226 127.207 216.492 127.772 216.901 128.226C217.311 128.68 217.847 129.002 218.44 129.151C219.033 129.3 219.658 129.269 220.234 129.063C220.809 128.856 221.311 128.484 221.674 127.992C222.037 127.5 222.246 126.912 222.273 126.302C222.3 125.691 222.145 125.087 221.827 124.565C221.509 124.043 221.043 123.627 220.488 123.37C219.933 123.113 219.314 123.027 218.709 123.123C217.909 123.249 217.191 123.685 216.71 124.337C216.229 124.988 216.024 125.802 216.139 126.602Z"
       fill="#1A2E35"
       stroke="#1A2E35"
       stroke-miterlimit="10"
       stroke-linecap="round"
       id="path52" />
    <path
       d="M219.502 125.646L228.719 124.21C228.932 124.166 229.12 124.044 229.247 123.869C229.374 123.694 229.431 123.477 229.407 123.262C229.363 123.05 229.241 122.862 229.066 122.735C228.89 122.608 228.673 122.551 228.458 122.575L219.249 124.01C219.037 124.052 218.848 124.172 218.719 124.346C218.591 124.519 218.531 124.735 218.553 124.95C218.595 125.163 218.716 125.353 218.892 125.482C219.068 125.611 219.285 125.669 219.502 125.646Z"
       fill="white"
       stroke="#1A2E35"
       stroke-miterlimit="10"
       stroke-linecap="round"
       id="path54" />
    <path
       d="M219.859 127.916L229.068 126.481C229.282 126.438 229.472 126.317 229.601 126.142C229.73 125.966 229.788 125.749 229.765 125.532C229.72 125.32 229.599 125.132 229.423 125.005C229.247 124.878 229.031 124.821 228.815 124.845L219.598 126.246C219.386 126.29 219.197 126.411 219.07 126.587C218.943 126.762 218.886 126.979 218.91 127.194C218.946 127.412 219.065 127.609 219.241 127.743C219.418 127.877 219.639 127.939 219.859 127.916Z"
       fill="white"
       stroke="#1A2E35"
       stroke-miterlimit="10"
       stroke-linecap="round"
       id="path56" />
    <path
       d="M217.681 136.684C217.775 137.284 218.044 137.843 218.455 138.291C218.866 138.739 219.401 139.055 219.991 139.2C220.582 139.345 221.202 139.313 221.774 139.107C222.346 138.901 222.845 138.531 223.207 138.043C223.569 137.555 223.778 136.971 223.809 136.365C223.839 135.758 223.689 135.156 223.378 134.634C223.067 134.113 222.608 133.694 222.06 133.432C221.511 133.17 220.897 133.076 220.295 133.161C219.89 133.219 219.501 133.356 219.15 133.564C218.8 133.773 218.494 134.049 218.25 134.377C218.007 134.705 217.832 135.078 217.734 135.474C217.636 135.87 217.618 136.281 217.681 136.684Z"
       fill="#1A2E35"
       stroke="#1A2E35"
       stroke-miterlimit="10"
       stroke-linecap="round"
       id="path58" />
    <path
       d="M221.07 135.684L230.279 134.249C230.493 134.206 230.683 134.086 230.812 133.91C230.941 133.734 230.999 133.517 230.976 133.3C230.931 133.088 230.809 132.901 230.634 132.773C230.458 132.646 230.242 132.589 230.026 132.613L220.809 134.075C220.597 134.119 220.408 134.24 220.281 134.416C220.154 134.591 220.097 134.808 220.121 135.023C220.17 135.23 220.295 135.412 220.47 135.534C220.645 135.655 220.858 135.709 221.07 135.684Z"
       fill="white"
       stroke="#1A2E35"
       stroke-miterlimit="10"
       stroke-linecap="round"
       id="path60" />
    <path
       d="M221.419 137.946L230.636 136.519C230.848 136.475 231.036 136.353 231.164 136.178C231.291 136.003 231.348 135.786 231.324 135.571C231.308 135.463 231.271 135.359 231.214 135.266C231.158 135.172 231.083 135.091 230.994 135.027C230.906 134.963 230.805 134.918 230.699 134.893C230.592 134.868 230.482 134.865 230.374 134.884L221.166 136.31C220.952 136.353 220.762 136.473 220.633 136.649C220.504 136.824 220.445 137.042 220.469 137.258C220.485 137.366 220.522 137.47 220.579 137.563C220.636 137.657 220.71 137.738 220.799 137.802C220.887 137.866 220.988 137.912 221.094 137.936C221.201 137.961 221.311 137.964 221.419 137.946Z"
       fill="white"
       stroke="#1A2E35"
       stroke-miterlimit="10"
       stroke-linecap="round"
       id="path62" />
    <path
       d="M219.267 146.671C219.354 147.275 219.619 147.84 220.029 148.294C220.438 148.748 220.974 149.07 221.567 149.219C222.161 149.368 222.785 149.337 223.361 149.131C223.937 148.925 224.438 148.552 224.801 148.06C225.165 147.569 225.373 146.98 225.4 146.37C225.428 145.759 225.273 145.155 224.955 144.633C224.637 144.111 224.171 143.695 223.616 143.438C223.06 143.181 222.441 143.095 221.837 143.191C221.037 143.318 220.318 143.754 219.838 144.405C219.357 145.056 219.152 145.87 219.267 146.671Z"
       fill="#1A2E35"
       stroke="#1A2E35"
       stroke-miterlimit="10"
       stroke-linecap="round"
       id="path64" />
    <path
       d="M222.63 145.722L231.847 144.287C232.059 144.243 232.247 144.121 232.375 143.946C232.502 143.771 232.559 143.554 232.535 143.339C232.491 143.127 232.369 142.939 232.193 142.812C232.018 142.685 231.801 142.628 231.585 142.652L222.377 144.078C222.163 144.121 221.973 144.241 221.844 144.417C221.715 144.592 221.656 144.81 221.68 145.026C221.722 145.24 221.843 145.43 222.019 145.559C222.195 145.688 222.413 145.746 222.63 145.722Z"
       fill="white"
       stroke="#1A2E35"
       stroke-miterlimit="10"
       stroke-linecap="round"
       id="path66" />
    <path
       d="M222.987 147.993L232.195 146.566C232.409 146.524 232.599 146.403 232.728 146.228C232.858 146.052 232.916 145.834 232.892 145.618C232.85 145.404 232.729 145.214 232.553 145.086C232.377 144.957 232.159 144.898 231.943 144.922L222.725 146.357C222.513 146.402 222.325 146.523 222.198 146.699C222.07 146.874 222.013 147.09 222.037 147.306C222.081 147.518 222.203 147.706 222.379 147.833C222.554 147.96 222.771 148.017 222.987 147.993Z"
       fill="white"
       stroke="#1A2E35"
       stroke-miterlimit="10"
       stroke-linecap="round"
       id="path68" />
    <path
       d="M220.826 156.692C220.912 157.295 221.175 157.859 221.582 158.313C221.989 158.768 222.521 159.091 223.113 159.242C223.704 159.394 224.327 159.367 224.902 159.165C225.478 158.963 225.981 158.595 226.347 158.108C226.713 157.62 226.926 157.035 226.959 156.427C226.992 155.818 226.844 155.213 226.533 154.689C226.221 154.165 225.761 153.745 225.211 153.482C224.66 153.219 224.044 153.125 223.44 153.212C222.632 153.328 221.903 153.76 221.413 154.412C220.923 155.065 220.712 155.884 220.826 156.692Z"
       fill="#1A2E35"
       stroke="#1A2E35"
       stroke-miterlimit="10"
       stroke-linecap="round"
       id="path70" />
    <path
       d="M224.198 155.752L233.406 154.325C233.62 154.283 233.81 154.162 233.939 153.987C234.068 153.811 234.127 153.594 234.103 153.377C234.061 153.164 233.94 152.974 233.764 152.845C233.588 152.716 233.37 152.658 233.153 152.681L223.936 154.082C223.724 154.126 223.536 154.248 223.409 154.423C223.281 154.598 223.224 154.815 223.248 155.03C223.285 155.249 223.403 155.445 223.58 155.579C223.756 155.713 223.977 155.775 224.198 155.752Z"
       fill="white"
       stroke="#1A2E35"
       stroke-miterlimit="10"
       stroke-linecap="round"
       id="path72" />
    <path
       d="M224.546 158.022L233.763 156.596C233.976 156.552 234.164 156.43 234.291 156.255C234.418 156.079 234.476 155.863 234.452 155.648C234.409 155.436 234.29 155.247 234.116 155.118C233.942 154.99 233.726 154.93 233.511 154.952L224.294 156.387C224.08 156.429 223.889 156.55 223.76 156.726C223.631 156.901 223.573 157.119 223.597 157.335C223.641 157.547 223.763 157.735 223.938 157.862C224.114 157.989 224.331 158.047 224.546 158.022Z"
       fill="white"
       stroke="#1A2E35"
       stroke-miterlimit="10"
       stroke-linecap="round"
       id="path74" />
    <path
       d="M222.394 166.747C222.482 167.352 222.747 167.917 223.156 168.371C223.566 168.825 224.102 169.147 224.695 169.296C225.288 169.445 225.913 169.414 226.489 169.208C227.064 169.001 227.566 168.629 227.929 168.137C228.292 167.645 228.501 167.057 228.528 166.447C228.555 165.836 228.4 165.232 228.082 164.71C227.764 164.188 227.298 163.772 226.743 163.515C226.188 163.258 225.569 163.172 224.964 163.268C224.164 163.394 223.446 163.83 222.965 164.482C222.484 165.133 222.279 165.947 222.394 166.747Z"
       fill="#1A2E35"
       stroke="#1A2E35"
       stroke-miterlimit="10"
       stroke-linecap="round"
       id="path76" />
    <path
       d="M225.757 165.79L234.974 164.364C235.187 164.32 235.375 164.198 235.502 164.023C235.629 163.847 235.687 163.631 235.663 163.416C235.62 163.204 235.501 163.015 235.327 162.886C235.153 162.758 234.937 162.698 234.722 162.72L225.522 164.155C225.308 164.197 225.118 164.318 224.989 164.494C224.86 164.669 224.801 164.887 224.825 165.103C224.869 165.312 224.988 165.497 225.16 165.624C225.332 165.751 225.544 165.81 225.757 165.79Z"
       fill="white"
       stroke="#1A2E35"
       stroke-miterlimit="10"
       stroke-linecap="round"
       id="path78" />
    <path
       d="M226.114 168.061L235.323 166.626C235.535 166.583 235.724 166.464 235.853 166.29C235.982 166.117 236.041 165.901 236.02 165.686C235.977 165.472 235.856 165.283 235.681 165.154C235.505 165.025 235.287 164.966 235.07 164.99L225.862 166.426C225.649 166.468 225.46 166.587 225.332 166.761C225.203 166.935 225.143 167.15 225.165 167.365C225.207 167.579 225.328 167.769 225.504 167.897C225.68 168.026 225.898 168.085 226.114 168.061Z"
       fill="white"
       stroke="#1A2E35"
       stroke-miterlimit="10"
       stroke-linecap="round"
       id="path80" />
    <path
       d="M223.954 176.786C224.039 177.389 224.302 177.954 224.709 178.408C225.116 178.862 225.649 179.185 226.24 179.337C226.831 179.488 227.454 179.461 228.03 179.259C228.606 179.057 229.108 178.689 229.475 178.202C229.841 177.714 230.054 177.129 230.087 176.521C230.12 175.912 229.971 175.308 229.66 174.784C229.349 174.259 228.889 173.839 228.338 173.576C227.788 173.313 227.171 173.219 226.567 173.306C225.759 173.423 225.03 173.854 224.54 174.507C224.05 175.159 223.839 175.978 223.954 176.786Z"
       fill="#1A2E35"
       stroke="#1A2E35"
       stroke-miterlimit="10"
       stroke-linecap="round"
       id="path82" />
    <path
       d="M227.325 175.829L236.534 174.394C236.746 174.351 236.935 174.232 237.064 174.058C237.193 173.885 237.252 173.669 237.231 173.454C237.188 173.241 237.067 173.051 236.891 172.922C236.716 172.793 236.498 172.735 236.281 172.758L227.073 174.194C226.86 174.236 226.671 174.355 226.543 174.529C226.414 174.703 226.354 174.918 226.376 175.133C226.418 175.347 226.539 175.537 226.715 175.665C226.891 175.794 227.109 175.853 227.325 175.829Z"
       fill="white"
       stroke="#1A2E35"
       stroke-miterlimit="10"
       stroke-linecap="round"
       id="path84" />
    <path
       d="M227.674 178.099L236.891 176.699C236.999 176.683 237.103 176.646 237.196 176.589C237.29 176.533 237.371 176.458 237.435 176.37C237.499 176.281 237.545 176.181 237.57 176.075C237.595 175.968 237.598 175.858 237.579 175.751C237.563 175.644 237.526 175.541 237.47 175.448C237.414 175.355 237.34 175.275 237.253 175.211C237.165 175.147 237.066 175.101 236.96 175.075C236.855 175.05 236.745 175.046 236.638 175.063L227.421 176.49C227.209 176.534 227.021 176.656 226.893 176.831C226.766 177.007 226.709 177.223 226.733 177.438C226.783 177.644 226.905 177.824 227.079 177.946C227.252 178.068 227.463 178.122 227.674 178.099Z"
       fill="white"
       stroke="#1A2E35"
       stroke-miterlimit="10"
       stroke-linecap="round"
       id="path86" />
    <path
       d="M225.522 186.824C225.617 187.426 225.889 187.985 226.302 188.433C226.716 188.88 227.253 189.195 227.846 189.337C228.439 189.48 229.06 189.444 229.633 189.234C230.205 189.024 230.702 188.649 231.061 188.157C231.42 187.665 231.625 187.077 231.65 186.469C231.674 185.861 231.518 185.259 231.2 184.739C230.883 184.219 230.418 183.805 229.864 183.55C229.311 183.294 228.694 183.207 228.092 183.301C227.691 183.364 227.307 183.504 226.961 183.715C226.615 183.926 226.314 184.203 226.075 184.531C225.837 184.858 225.665 185.229 225.57 185.622C225.475 186.016 225.459 186.424 225.522 186.824Z"
       fill="#1A2E35"
       stroke="#1A2E35"
       stroke-miterlimit="10"
       stroke-linecap="round"
       id="path88" />
    <path
       d="M228.885 185.867L238.102 184.432C238.21 184.416 238.314 184.379 238.407 184.322C238.501 184.266 238.582 184.191 238.646 184.103C238.71 184.014 238.756 183.914 238.781 183.808C238.805 183.702 238.809 183.591 238.79 183.484C238.774 183.377 238.737 183.274 238.681 183.181C238.625 183.088 238.551 183.008 238.463 182.944C238.376 182.88 238.277 182.834 238.171 182.809C238.066 182.783 237.956 182.779 237.849 182.797L228.632 184.223C228.42 184.267 228.232 184.389 228.104 184.564C227.977 184.74 227.92 184.956 227.944 185.171C227.986 185.383 228.106 185.572 228.28 185.701C228.454 185.829 228.669 185.889 228.885 185.867Z"
       fill="white"
       stroke="#1A2E35"
       stroke-miterlimit="10"
       stroke-linecap="round"
       id="path90" />
    <path
       d="M229.242 188.138L238.459 186.702C238.671 186.658 238.86 186.537 238.987 186.361C239.114 186.186 239.171 185.969 239.147 185.754C239.103 185.542 238.981 185.354 238.806 185.227C238.63 185.1 238.413 185.043 238.198 185.067L229.007 186.494C228.793 186.536 228.602 186.657 228.473 186.832C228.344 187.008 228.286 187.225 228.31 187.442C228.352 187.652 228.47 187.84 228.642 187.968C228.814 188.096 229.028 188.157 229.242 188.138Z"
       fill="white"
       stroke="#1A2E35"
       stroke-miterlimit="10"
       stroke-linecap="round"
       id="path92" />
    <path
       d="M227.081 196.863C227.175 197.463 227.444 198.022 227.855 198.469C228.266 198.917 228.801 199.233 229.391 199.378C229.982 199.524 230.602 199.491 231.174 199.285C231.746 199.08 232.245 198.709 232.607 198.221C232.969 197.733 233.178 197.149 233.209 196.543C233.239 195.936 233.089 195.334 232.778 194.813C232.467 194.291 232.008 193.873 231.46 193.611C230.911 193.349 230.297 193.254 229.695 193.34C229.291 193.398 228.903 193.536 228.552 193.745C228.202 193.954 227.896 194.23 227.653 194.558C227.41 194.885 227.235 195.257 227.137 195.653C227.038 196.049 227.02 196.46 227.081 196.863Z"
       fill="#1A2E35"
       stroke="#1A2E35"
       stroke-miterlimit="10"
       stroke-linecap="round"
       id="path94" />
    <path
       d="M230.453 195.906L239.661 194.47C239.875 194.428 240.065 194.307 240.194 194.132C240.324 193.956 240.382 193.739 240.358 193.522C240.314 193.31 240.192 193.122 240.016 192.995C239.841 192.868 239.624 192.811 239.409 192.835L230.2 194.262C229.986 194.304 229.796 194.425 229.667 194.6C229.538 194.776 229.479 194.993 229.503 195.21C229.546 195.423 229.667 195.613 229.842 195.742C230.018 195.871 230.236 195.929 230.453 195.906Z"
       fill="white"
       stroke="#1A2E35"
       stroke-miterlimit="10"
       stroke-linecap="round"
       id="path96" />
    <path
       d="M230.81 198.167L240.018 196.706C240.232 196.664 240.423 196.543 240.552 196.367C240.681 196.192 240.739 195.974 240.715 195.758C240.673 195.544 240.552 195.354 240.376 195.225C240.2 195.097 239.983 195.038 239.766 195.062L230.549 196.497C230.336 196.541 230.148 196.663 230.021 196.838C229.894 197.014 229.836 197.23 229.86 197.445C229.897 197.664 230.016 197.86 230.192 197.994C230.368 198.128 230.589 198.19 230.81 198.167Z"
       fill="white"
       stroke="#1A2E35"
       stroke-miterlimit="10"
       stroke-linecap="round"
       id="path98" />
    <path
       d="M228.65 206.892C228.735 207.496 228.998 208.06 229.405 208.514C229.812 208.968 230.345 209.292 230.936 209.443C231.527 209.595 232.15 209.568 232.725 209.366C233.301 209.164 233.804 208.796 234.17 208.308C234.536 207.821 234.749 207.236 234.782 206.627C234.815 206.019 234.667 205.414 234.356 204.89C234.044 204.366 233.584 203.946 233.034 203.683C232.483 203.42 231.867 203.326 231.263 203.413C230.455 203.529 229.726 203.961 229.236 204.613C228.746 205.265 228.535 206.085 228.65 206.892Z"
       fill="#1A2E35"
       stroke="#1A2E35"
       stroke-miterlimit="10"
       stroke-linecap="round"
       id="path100" />
    <path
       d="M232.021 205.935L241.203 204.535C241.417 204.493 241.607 204.372 241.736 204.196C241.865 204.021 241.924 203.803 241.9 203.587C241.856 203.375 241.734 203.187 241.558 203.06C241.383 202.933 241.166 202.876 240.951 202.9L231.733 204.326C231.521 204.37 231.333 204.492 231.206 204.667C231.078 204.843 231.021 205.059 231.045 205.274C231.064 205.383 231.104 205.486 231.164 205.578C231.224 205.671 231.301 205.75 231.392 205.812C231.483 205.874 231.586 205.916 231.694 205.938C231.802 205.959 231.913 205.958 232.021 205.935Z"
       fill="white"
       stroke="#1A2E35"
       stroke-miterlimit="10"
       stroke-linecap="round"
       id="path102" />
    <path
       d="M232.369 208.206L241.587 206.779C241.799 206.735 241.987 206.613 242.114 206.438C242.242 206.263 242.299 206.046 242.275 205.831C242.232 205.617 242.111 205.427 241.936 205.299C241.76 205.17 241.542 205.111 241.325 205.135L232.117 206.571C231.903 206.613 231.713 206.734 231.584 206.909C231.455 207.085 231.396 207.302 231.42 207.519C231.464 207.731 231.586 207.919 231.762 208.046C231.937 208.173 232.154 208.23 232.369 208.206Z"
       fill="white"
       stroke="#1A2E35"
       stroke-miterlimit="10"
       stroke-linecap="round"
       id="path104" />
    <path
       d="M230.218 216.931C230.305 217.536 230.57 218.101 230.98 218.554C231.389 219.008 231.925 219.33 232.518 219.479C233.112 219.628 233.736 219.597 234.312 219.391C234.888 219.185 235.389 218.812 235.752 218.32C236.115 217.829 236.324 217.24 236.351 216.63C236.378 216.02 236.223 215.415 235.905 214.893C235.588 214.371 235.121 213.955 234.566 213.698C234.011 213.442 233.392 213.356 232.788 213.451C231.986 213.576 231.267 214.011 230.785 214.663C230.304 215.315 230.1 216.13 230.218 216.931Z"
       fill="#1A2E35"
       stroke="#1A2E35"
       stroke-miterlimit="10"
       stroke-linecap="round"
       id="path106" />
    <path
       d="M233.58 215.974L242.797 214.547C243.01 214.503 243.198 214.382 243.325 214.206C243.453 214.031 243.51 213.814 243.486 213.599C243.443 213.386 243.322 213.196 243.147 213.067C242.971 212.938 242.753 212.88 242.536 212.903L233.363 214.339C233.149 214.381 232.958 214.502 232.829 214.677C232.7 214.853 232.642 215.07 232.666 215.287C232.709 215.492 232.826 215.675 232.994 215.801C233.162 215.928 233.371 215.989 233.58 215.974Z"
       fill="white"
       stroke="#1A2E35"
       stroke-miterlimit="10"
       stroke-linecap="round"
       id="path108" />
    <path
       d="M233.938 218.244L243.146 216.809C243.358 216.761 243.545 216.635 243.669 216.456C243.793 216.278 243.846 216.059 243.817 215.843C243.774 215.63 243.653 215.44 243.478 215.311C243.302 215.182 243.084 215.124 242.867 215.148L233.65 216.583C233.543 216.599 233.44 216.636 233.347 216.692C233.254 216.748 233.173 216.822 233.109 216.909C233.045 216.996 232.999 217.096 232.974 217.201C232.949 217.306 232.945 217.415 232.962 217.522C232.998 217.746 233.121 217.946 233.303 218.081C233.485 218.216 233.713 218.274 233.938 218.244Z"
       fill="white"
       stroke="#1A2E35"
       stroke-miterlimit="10"
       stroke-linecap="round"
       id="path110" />
    <path
       d="M231.777 226.969C231.864 227.574 232.129 228.139 232.539 228.593C232.949 229.047 233.484 229.369 234.078 229.518C234.671 229.667 235.295 229.636 235.871 229.43C236.447 229.223 236.948 228.851 237.312 228.359C237.675 227.867 237.883 227.279 237.911 226.668C237.938 226.058 237.783 225.453 237.465 224.931C237.147 224.409 236.681 223.994 236.126 223.737C235.57 223.48 234.951 223.394 234.347 223.49C233.547 223.616 232.829 224.052 232.348 224.703C231.867 225.354 231.662 226.168 231.777 226.969Z"
       fill="#1A2E35"
       stroke="#1A2E35"
       stroke-miterlimit="10"
       stroke-linecap="round"
       id="path112" />
    <path
       d="M235.148 226.012L244.357 224.542C244.569 224.5 244.758 224.381 244.887 224.207C245.016 224.033 245.075 223.818 245.054 223.603C245.011 223.389 244.89 223.199 244.715 223.07C244.539 222.941 244.321 222.883 244.104 222.907L234.887 224.342C234.675 224.386 234.487 224.508 234.359 224.683C234.232 224.859 234.175 225.075 234.199 225.29C234.235 225.509 234.354 225.705 234.53 225.839C234.707 225.973 234.928 226.035 235.148 226.012Z"
       fill="white"
       stroke="#1A2E35"
       stroke-miterlimit="10"
       stroke-linecap="round"
       id="path114" />
    <path
       d="M235.497 228.283L244.688 226.847C244.9 226.803 245.088 226.682 245.216 226.506C245.343 226.331 245.4 226.114 245.376 225.899C245.332 225.687 245.21 225.499 245.034 225.372C244.859 225.245 244.642 225.188 244.427 225.212L235.218 226.639C235.004 226.681 234.814 226.802 234.685 226.977C234.556 227.153 234.497 227.37 234.521 227.587C234.564 227.805 234.689 228 234.87 228.129C235.052 228.259 235.276 228.314 235.497 228.283Z"
       fill="white"
       stroke="#1A2E35"
       stroke-miterlimit="10"
       stroke-linecap="round"
       id="path116" />
    <path
       d="M233.363 237.008C233.45 237.612 233.715 238.178 234.124 238.631C234.534 239.085 235.07 239.407 235.663 239.556C236.256 239.705 236.881 239.674 237.457 239.468C238.033 239.262 238.534 238.889 238.897 238.397C239.26 237.906 239.469 237.317 239.496 236.707C239.523 236.097 239.368 235.492 239.05 234.97C238.733 234.448 238.266 234.032 237.711 233.775C237.156 233.519 236.537 233.432 235.933 233.528C235.132 233.655 234.414 234.091 233.933 234.742C233.452 235.393 233.247 236.207 233.363 237.008Z"
       fill="#1A2E35"
       stroke="#1A2E35"
       stroke-miterlimit="10"
       stroke-linecap="round"
       id="path118" />
    <path
       d="M236.708 236.051L245.925 234.615C246.137 234.571 246.326 234.45 246.453 234.274C246.58 234.099 246.637 233.882 246.613 233.667C246.569 233.455 246.447 233.267 246.272 233.14C246.096 233.013 245.879 232.956 245.664 232.98L236.455 234.415C236.243 234.458 236.054 234.577 235.925 234.751C235.796 234.924 235.737 235.14 235.758 235.355C235.801 235.568 235.922 235.758 236.097 235.887C236.273 236.016 236.491 236.074 236.708 236.051Z"
       fill="white"
       stroke="#1A2E35"
       stroke-miterlimit="10"
       stroke-linecap="round"
       id="path120" />
    <path
       d="M237.065 238.321L246.273 236.886C246.487 236.844 246.678 236.723 246.807 236.547C246.936 236.372 246.994 236.154 246.97 235.938C246.926 235.726 246.804 235.538 246.629 235.411C246.453 235.283 246.236 235.226 246.021 235.25L236.847 236.721C236.635 236.765 236.447 236.886 236.319 237.062C236.192 237.237 236.135 237.453 236.159 237.669C236.21 237.866 236.328 238.04 236.494 238.159C236.659 238.278 236.861 238.336 237.065 238.321Z"
       fill="white"
       stroke="#1A2E35"
       stroke-miterlimit="10"
       stroke-linecap="round"
       id="path122" />
    <path
       d="M234.905 247.046C234.998 247.646 235.267 248.205 235.678 248.653C236.089 249.1 236.624 249.417 237.214 249.562C237.805 249.707 238.425 249.675 238.997 249.469C239.569 249.263 240.068 248.893 240.43 248.405C240.792 247.917 241.001 247.333 241.032 246.726C241.062 246.12 240.913 245.518 240.601 244.996C240.29 244.474 239.831 244.056 239.283 243.794C238.734 243.532 238.12 243.438 237.518 243.523C237.114 243.58 236.725 243.717 236.374 243.926C236.023 244.135 235.717 244.411 235.474 244.739C235.23 245.067 235.055 245.439 234.957 245.835C234.86 246.231 234.842 246.643 234.905 247.046Z"
       fill="#1A2E35"
       stroke="#1A2E35"
       stroke-miterlimit="10"
       stroke-linecap="round"
       id="path124" />
    <path
       d="M238.276 246.089L247.484 244.654C247.702 244.61 247.894 244.484 248.022 244.303C248.15 244.122 248.204 243.899 248.173 243.68C248.128 243.468 248.007 243.28 247.831 243.153C247.655 243.025 247.439 242.968 247.223 242.992L238.006 244.419C237.794 244.463 237.605 244.585 237.478 244.76C237.351 244.935 237.294 245.152 237.318 245.367C237.354 245.587 237.474 245.785 237.652 245.919C237.831 246.054 238.054 246.114 238.276 246.089Z"
       fill="white"
       stroke="#1A2E35"
       stroke-miterlimit="10"
       stroke-linecap="round"
       id="path126" />
    <path
       d="M238.59 248.351L247.807 246.924C248.019 246.88 248.207 246.758 248.335 246.583C248.462 246.408 248.519 246.191 248.495 245.976C248.48 245.868 248.444 245.765 248.388 245.672C248.332 245.578 248.258 245.497 248.171 245.433C248.083 245.369 247.983 245.323 247.877 245.298C247.771 245.274 247.661 245.27 247.554 245.289L238.337 246.715C238.229 246.731 238.125 246.769 238.032 246.825C237.938 246.882 237.857 246.956 237.793 247.045C237.729 247.133 237.683 247.233 237.658 247.34C237.633 247.446 237.63 247.556 237.649 247.664C237.664 247.771 237.7 247.875 237.756 247.968C237.811 248.061 237.885 248.143 237.973 248.207C238.061 248.271 238.161 248.317 238.267 248.341C238.373 248.366 238.482 248.369 238.59 248.351Z"
       fill="white"
       stroke="#1A2E35"
       stroke-miterlimit="10"
       stroke-linecap="round"
       id="path128" />
    <path
       d="M236.473 257.076C236.56 257.68 236.825 258.246 237.235 258.699C237.644 259.153 238.18 259.475 238.773 259.624C239.367 259.773 239.991 259.742 240.567 259.536C241.143 259.33 241.644 258.957 242.007 258.465C242.37 257.974 242.579 257.385 242.606 256.775C242.633 256.165 242.478 255.56 242.161 255.038C241.843 254.516 241.377 254.1 240.821 253.843C240.266 253.587 239.647 253.501 239.043 253.596C238.242 253.723 237.524 254.159 237.043 254.81C236.562 255.461 236.357 256.275 236.473 257.076Z"
       fill="#1A2E35"
       stroke="#1A2E35"
       stroke-miterlimit="10"
       stroke-linecap="round"
       id="path130" />
    <path
       d="M239.835 256.128L249.044 254.692C249.256 254.648 249.444 254.526 249.572 254.351C249.699 254.176 249.756 253.959 249.732 253.744C249.716 253.637 249.679 253.534 249.623 253.441C249.567 253.349 249.493 253.268 249.405 253.204C249.318 253.14 249.219 253.094 249.113 253.069C249.008 253.044 248.898 253.04 248.791 253.057L239.574 254.484C239.466 254.499 239.362 254.537 239.269 254.593C239.175 254.65 239.094 254.724 239.03 254.813C238.966 254.901 238.92 255.001 238.895 255.108C238.87 255.214 238.867 255.324 238.886 255.432C238.928 255.645 239.049 255.835 239.225 255.964C239.401 256.093 239.619 256.151 239.835 256.128Z"
       fill="white"
       stroke="#1A2E35"
       stroke-miterlimit="10"
       stroke-linecap="round"
       id="path132" />
    <path
       d="M240.193 258.389L249.401 256.963C249.615 256.92 249.805 256.8 249.934 256.624C250.063 256.448 250.122 256.231 250.098 256.014C250.056 255.801 249.935 255.611 249.759 255.482C249.583 255.353 249.365 255.295 249.148 255.319L239.94 256.728C239.726 256.77 239.536 256.891 239.407 257.066C239.278 257.242 239.219 257.46 239.243 257.676C239.282 257.893 239.401 258.087 239.577 258.219C239.753 258.352 239.973 258.412 240.193 258.389Z"
       fill="white"
       stroke="#1A2E35"
       stroke-miterlimit="10"
       stroke-linecap="round"
       id="path134" />
    <path
       d="M238.032 267.114C238.118 267.718 238.381 268.282 238.788 268.736C239.195 269.19 239.727 269.513 240.318 269.665C240.909 269.817 241.532 269.79 242.108 269.588C242.684 269.386 243.187 269.018 243.553 268.53C243.919 268.043 244.132 267.458 244.165 266.849C244.198 266.241 244.05 265.636 243.738 265.112C243.427 264.588 242.967 264.168 242.417 263.905C241.866 263.642 241.25 263.548 240.646 263.635C239.838 263.753 239.111 264.185 238.621 264.837C238.132 265.489 237.92 266.307 238.032 267.114Z"
       fill="#1A2E35"
       stroke="#1A2E35"
       stroke-miterlimit="10"
       stroke-linecap="round"
       id="path136" />
    <path
       d="M241.404 266.157L250.612 264.731C250.826 264.688 251.016 264.568 251.145 264.392C251.274 264.217 251.333 263.999 251.309 263.783C251.267 263.569 251.146 263.379 250.97 263.25C250.794 263.121 250.576 263.063 250.359 263.087L241.151 264.557C240.937 264.599 240.747 264.72 240.618 264.895C240.489 265.071 240.43 265.288 240.454 265.505C240.506 265.71 240.63 265.89 240.805 266.01C240.98 266.13 241.193 266.183 241.404 266.157Z"
       fill="white"
       stroke="#1A2E35"
       stroke-miterlimit="10"
       stroke-linecap="round"
       id="path138" />
    <path
       d="M241.752 268.428L250.969 267.001C251.181 266.957 251.37 266.835 251.497 266.66C251.624 266.485 251.681 266.268 251.657 266.053C251.615 265.841 251.495 265.652 251.321 265.524C251.147 265.395 250.932 265.336 250.716 265.357L241.499 266.792C241.287 266.836 241.099 266.958 240.972 267.133C240.844 267.309 240.787 267.525 240.811 267.74C240.827 267.848 240.864 267.951 240.92 268.043C240.976 268.136 241.05 268.217 241.138 268.28C241.225 268.344 241.325 268.39 241.43 268.416C241.536 268.441 241.645 268.445 241.752 268.428Z"
       fill="white"
       stroke="#1A2E35"
       stroke-miterlimit="10"
       stroke-linecap="round"
       id="path140" />
    <g
       opacity="0.3"
       id="g252">
      <path
         opacity="0.3"
         d="M106.31 96.8699L108.601 96.5219"
         stroke="black"
         stroke-miterlimit="10"
         stroke-linecap="round"
         id="path142" />
      <path
         opacity="0.3"
         d="M110.892 96.1653L113.175 95.8086"
         stroke="black"
         stroke-miterlimit="10"
         stroke-linecap="round"
         id="path144" />
      <path
         opacity="0.3"
         d="M83.9206 103.577L86.2031 103.22"
         stroke="black"
         stroke-miterlimit="10"
         stroke-linecap="round"
         id="path146" />
      <path
         opacity="0.3"
         d="M88.4943 102.863L90.7855 102.507"
         stroke="black"
         stroke-miterlimit="10"
         stroke-linecap="round"
         id="path148" />
      <path
         opacity="0.3"
         d="M93.068 102.159L95.3592 101.802"
         stroke="black"
         stroke-miterlimit="10"
         stroke-linecap="round"
         id="path150" />
      <path
         opacity="0.3"
         d="M97.6504 101.445L99.9329 101.089"
         stroke="black"
         stroke-miterlimit="10"
         stroke-linecap="round"
         id="path152" />
      <path
         opacity="0.3"
         d="M102.224 100.732L104.515 100.375"
         stroke="black"
         stroke-miterlimit="10"
         stroke-linecap="round"
         id="path154" />
      <path
         opacity="0.3"
         d="M106.806 100.019L109.089 99.6622"
         stroke="black"
         stroke-miterlimit="10"
         stroke-linecap="round"
         id="path156" />
      <path
         opacity="0.3"
         d="M111.38 99.3142L113.671 98.9576"
         stroke="black"
         stroke-miterlimit="10"
         stroke-linecap="round"
         id="path158" />
      <path
         opacity="0.3"
         d="M84.4085 106.726L86.6997 106.369"
         stroke="black"
         stroke-miterlimit="10"
         stroke-linecap="round"
         id="path160" />
      <path
         opacity="0.3"
         d="M88.9822 106.012L91.2734 105.656"
         stroke="black"
         stroke-miterlimit="10"
         stroke-linecap="round"
         id="path162" />
      <path
         opacity="0.3"
         d="M93.5646 105.299L95.8471 104.951"
         stroke="black"
         stroke-miterlimit="10"
         stroke-linecap="round"
         id="path164" />
      <path
         opacity="0.3"
         d="M98.1383 104.594L100.429 104.238"
         stroke="black"
         stroke-miterlimit="10"
         stroke-linecap="round"
         id="path166" />
      <path
         opacity="0.3"
         d="M102.721 103.881L105.003 103.524"
         stroke="black"
         stroke-miterlimit="10"
         stroke-linecap="round"
         id="path168" />
      <path
         opacity="0.3"
         d="M107.294 103.168L109.586 102.811"
         stroke="black"
         stroke-miterlimit="10"
         stroke-linecap="round"
         id="path170" />
      <path
         opacity="0.3"
         d="M111.868 102.455L114.159 102.107"
         stroke="black"
         stroke-miterlimit="10"
         stroke-linecap="round"
         id="path172" />
      <path
         opacity="0.3"
         d="M84.8963 109.875L87.1875 109.518"
         stroke="black"
         stroke-miterlimit="10"
         stroke-linecap="round"
         id="path174" />
      <path
         opacity="0.3"
         d="M89.4787 109.161L91.7612 108.805"
         stroke="black"
         stroke-miterlimit="10"
         stroke-linecap="round"
         id="path176" />
      <path
         opacity="0.3"
         d="M94.0524 108.448L96.3436 108.091"
         stroke="black"
         stroke-miterlimit="10"
         stroke-linecap="round"
         id="path178" />
      <path
         opacity="0.3"
         d="M98.6261 107.743L100.917 107.387"
         stroke="black"
         stroke-miterlimit="10"
         stroke-linecap="round"
         id="path180" />
      <path
         opacity="0.3"
         d="M103.209 107.03L105.5 106.673"
         stroke="black"
         stroke-miterlimit="10"
         stroke-linecap="round"
         id="path182" />
      <path
         opacity="0.3"
         d="M107.782 106.317L110.073 105.96"
         stroke="black"
         stroke-miterlimit="10"
         stroke-linecap="round"
         id="path184" />
      <path
         opacity="0.3"
         d="M112.365 105.603L114.647 105.247"
         stroke="black"
         stroke-miterlimit="10"
         stroke-linecap="round"
         id="path186" />
      <path
         opacity="0.3"
         d="M85.3929 113.024L87.6754 112.667"
         stroke="black"
         stroke-miterlimit="10"
         stroke-linecap="round"
         id="path188" />
      <path
         opacity="0.3"
         d="M89.9666 112.31L92.2578 111.954"
         stroke="black"
         stroke-miterlimit="10"
         stroke-linecap="round"
         id="path190" />
      <path
         opacity="0.3"
         d="M94.5403 111.597L96.8315 111.24"
         stroke="black"
         stroke-miterlimit="10"
         stroke-linecap="round"
         id="path192" />
      <path
         opacity="0.3"
         d="M99.1227 110.884L101.405 110.536"
         stroke="black"
         stroke-miterlimit="10"
         stroke-linecap="round"
         id="path194" />
      <path
         opacity="0.3"
         d="M103.696 110.179L105.988 109.822"
         stroke="black"
         stroke-miterlimit="10"
         stroke-linecap="round"
         id="path196" />
      <path
         opacity="0.3"
         d="M108.279 109.466L110.561 109.109"
         stroke="black"
         stroke-miterlimit="10"
         stroke-linecap="round"
         id="path198" />
      <path
         opacity="0.3"
         d="M112.852 108.752L115.144 108.396"
         stroke="black"
         stroke-miterlimit="10"
         stroke-linecap="round"
         id="path200" />
      <path
         opacity="0.3"
         d="M82.7794 96.2958L85.0706 95.9391"
         stroke="black"
         stroke-miterlimit="10"
         stroke-linecap="round"
         id="path202" />
      <path
         opacity="0.3"
         d="M87.3618 95.5911L89.6443 95.2345"
         stroke="black"
         stroke-miterlimit="10"
         stroke-linecap="round"
         id="path204" />
      <path
         opacity="0.3"
         d="M91.9355 94.8779L94.2267 94.5212"
         stroke="black"
         stroke-miterlimit="10"
         stroke-linecap="round"
         id="path206" />
      <path
         opacity="0.3"
         d="M96.5179 94.1645L98.8003 93.8079"
         stroke="black"
         stroke-miterlimit="10"
         stroke-linecap="round"
         id="path208" />
      <path
         opacity="0.3"
         d="M101.092 93.4513L103.383 93.0946"
         stroke="black"
         stroke-miterlimit="10"
         stroke-linecap="round"
         id="path210" />
      <path
         opacity="0.3"
         d="M105.665 92.7379L107.956 92.39"
         stroke="black"
         stroke-miterlimit="10"
         stroke-linecap="round"
         id="path212" />
      <path
         opacity="0.3"
         d="M110.248 92.0334L112.53 91.6767"
         stroke="black"
         stroke-miterlimit="10"
         stroke-linecap="round"
         id="path214" />
      <path
         opacity="0.3"
         d="M113.009 93.4164L82.8578 98.0964"
         stroke="black"
         stroke-miterlimit="10"
         stroke-linecap="round"
         id="path216" />
      <path
         opacity="0.3"
         d="M91.2298 90.9547L102.86 89.1453"
         stroke="black"
         stroke-miterlimit="10"
         stroke-linecap="round"
         id="path218" />
      <path
         opacity="0.3"
         d="M76.7857 123.419L205.049 103.49"
         stroke="black"
         stroke-miterlimit="10"
         stroke-linecap="round"
         id="path220" />
      <path
         opacity="0.3"
         d="M78.3886 133.735L206.652 113.806"
         stroke="black"
         stroke-miterlimit="10"
         stroke-linecap="round"
         id="path222" />
      <path
         opacity="0.3"
         d="M80.0003 144.052L208.264 124.115"
         stroke="black"
         stroke-miterlimit="10"
         stroke-linecap="round"
         id="path224" />
      <path
         opacity="0.3"
         d="M81.6033 154.36L209.867 134.431"
         stroke="black"
         stroke-miterlimit="10"
         stroke-linecap="round"
         id="path226" />
      <path
         opacity="0.3"
         d="M83.215 164.677L211.479 144.748"
         stroke="black"
         stroke-miterlimit="10"
         stroke-linecap="round"
         id="path228" />
      <path
         opacity="0.3"
         d="M84.8179 174.994L213.082 155.056"
         stroke="black"
         stroke-miterlimit="10"
         stroke-linecap="round"
         id="path230" />
      <path
         opacity="0.3"
         d="M86.4296 185.302L214.693 165.373"
         stroke="black"
         stroke-miterlimit="10"
         stroke-linecap="round"
         id="path232" />
      <path
         opacity="0.3"
         d="M88.0413 195.619L216.296 175.69"
         stroke="black"
         stroke-miterlimit="10"
         stroke-linecap="round"
         id="path234" />
      <path
         opacity="0.3"
         d="M89.6443 205.935L217.908 186.007"
         stroke="black"
         stroke-miterlimit="10"
         stroke-linecap="round"
         id="path236" />
      <path
         opacity="0.3"
         d="M91.256 216.252L219.511 196.315"
         stroke="black"
         stroke-miterlimit="10"
         stroke-linecap="round"
         id="path238" />
      <path
         opacity="0.3"
         d="M92.8589 226.56L221.123 206.631"
         stroke="black"
         stroke-miterlimit="10"
         stroke-linecap="round"
         id="path240" />
      <path
         opacity="0.3"
         d="M94.4706 236.877L222.725 216.948"
         stroke="black"
         stroke-miterlimit="10"
         stroke-linecap="round"
         id="path242" />
      <path
         opacity="0.3"
         d="M96.0736 247.194L224.337 227.265"
         stroke="black"
         stroke-miterlimit="10"
         stroke-linecap="round"
         id="path244" />
      <path
         opacity="0.3"
         d="M99.8893 271.69L228.153 251.761"
         stroke="black"
         stroke-miterlimit="10"
         stroke-linecap="round"
         id="path246" />
      <path
         opacity="0.3"
         d="M101.161 279.858L229.425 259.92"
         stroke="black"
         stroke-miterlimit="10"
         stroke-linecap="round"
         id="path248" />
      <path
         opacity="0.3"
         d="M102.442 288.017L230.697 268.088"
         stroke="black"
         stroke-miterlimit="10"
         stroke-linecap="round"
         id="path250" />
    </g>
    <path
       d="M95.0804 133.344C95.0804 133.344 84.1471 145.166 90.4632 143.304C96.7792 141.443 105.439 129.09 103.601 134.223C101.762 139.355 101.858 142.852 104.829 139.311C107.8 135.771 109.464 135.066 108.871 136.919C108.279 138.772 110.727 137.519 110.727 137.519C110.727 137.519 116.825 133.935 116.18 135.78C115.536 137.624 115.161 137.693 116.886 137.432L122.479 136.562C122.479 136.562 122.113 137.058 127.279 136.258C132.445 135.458 134.466 134.257 137.045 133.857"
       stroke="#1A2E35"
       stroke-miterlimit="10"
       stroke-linecap="round"
       id="path254" />
    <path
       d="M90.1147 149.524C90.1147 149.524 98.5477 144.252 99.6106 145.4C100.673 146.549 99.2185 148.549 103.026 147.514C106.833 146.479 110.3 143.304 110.57 145.018C110.84 146.731 113.288 145.479 113.288 145.479L115.44 145.148C115.44 145.148 119.378 144.974 120.606 144.339C121.834 143.704 123.106 137.789 122.165 145.862C121.224 153.934 117.923 146.958 125.772 143.539C133.621 140.12 135.076 143.852 135.076 143.852C135.943 143.67 136.788 143.393 137.594 143.026C139.249 142.33 140.695 140.338 142.255 141.86C143.814 143.382 146.611 138.546 146.611 138.546C147.699 138.749 148.773 139.022 149.825 139.364C150.834 139.715 151.906 139.849 152.97 139.755C154.285 139.805 155.602 139.747 156.908 139.581C158.65 139.32 160.088 137.328 161.508 137.989C162.928 138.65 165.08 132.596 163.999 139.807C162.919 147.018 155.932 150.298 158.772 145.896C161.279 142.044 164.499 138.705 168.259 136.058C171.439 133.805 172.363 134.101 173.068 135.754C173.774 137.406 174.628 137.276 176.274 136.571C177.921 135.867 176.509 135.223 177.929 135.875C178.887 136.418 180.021 136.559 181.083 136.267C182.372 136.067 176.318 139.651 182.372 136.067C188.427 132.483 190.588 118.069 187.417 126.037C184.246 134.005 185.448 136.032 189.673 134.945"
       stroke="#1A2E35"
       stroke-miterlimit="10"
       stroke-linecap="round"
       id="path256" />
    <path
       d="M91.0294 163.903C91.0294 163.903 101.379 153.934 100.752 152.708C100.125 151.481 96.8054 152.881 94.4009 157.222C91.9965 161.563 93.6778 163.929 100.168 160.284C106.658 156.639 97.2235 161.154 103.879 161.467C110.535 161.78 112.513 157.483 112.713 158.771C112.913 160.058 110.692 159.971 115.928 159.597C121.164 159.223 118.602 156.987 123.969 157.466C129.335 157.944 131.722 156.265 131.722 156.265L135.163 155.726C135.163 155.726 128.194 156.37 137.245 154.96C146.297 153.551 150.27 142.373 145.914 148.332C141.558 154.291 143.605 156.161 148.074 153.717L152.543 151.264C152.543 151.264 158.197 145.105 155.523 153.438C152.848 161.772 149.703 155.665 159.626 151.481C169.549 147.297 169.296 151.298 172.607 149.906C175.917 148.515 175.377 145.079 177.572 147.819C179.768 150.559 179.628 149.698 183.069 149.158C186.511 148.619 185.587 148.332 188.601 147.862L195.031 146.862"
       stroke="#1A2E35"
       stroke-miterlimit="10"
       stroke-linecap="round"
       id="path258" />
    <path
       d="M92.7718 194.888C92.7718 194.888 99.9852 190.243 101.135 183.466C102.285 176.69 96.5963 185.485 97.2148 195.079C97.8333 204.674 94.4532 191.539 104.515 188.216C114.577 184.893 103.644 191 104.759 192.565C105.874 194.131 114.124 187.59 114.029 189.808C113.933 192.026 115.771 192.609 120.85 188.303C125.929 183.997 117.661 184.823 117.269 187.981C116.877 191.139 119.325 189.86 125.58 187.572C131.835 185.285 125.711 188.442 129.588 187.825C133.465 187.207 141.993 179.735 140.312 183.084C138.631 186.433 140.251 188.373 142.133 186.32C144.015 184.267 148.022 178.804 148.353 180.953C148.56 182.219 148.283 183.516 147.578 184.589"
       stroke="#1A2E35"
       stroke-miterlimit="10"
       stroke-linecap="round"
       id="path260" />
    <path
       opacity="0.3"
       d="M52.3404 113.041C52.1748 112.858 51.9941 112.689 51.8003 112.536C51.2475 112.106 50.6414 111.75 49.9969 111.475L49.6136 111.336H49.5265C46.0941 110.283 34.3506 109.77 30.4128 109.596C29.4306 109.562 28.4657 109.861 27.6749 110.443C26.884 111.026 26.3139 111.859 26.0569 112.806V112.902C25.2642 116.094 13.3552 194.853 13.3552 194.853C13.3552 194.853 13.268 196.593 13.1548 199.316C13.1025 200.507 13.0415 201.882 12.9806 203.361L12.9283 204.492C12.9283 205.257 12.8673 206.04 12.8325 206.84C12.7192 209.632 12.6147 212.573 12.5363 215.252C12.4753 217.174 12.4317 218.958 12.4056 220.471C12.4056 221.68 12.4056 222.716 12.4056 223.49C12.3997 225.312 12.5015 227.133 12.7105 228.944C13.059 231.188 13.8343 232.223 15.7683 232.571C16.2475 232.65 16.9444 232.754 17.7895 232.858L18.3209 232.928L20.7079 233.18L21.37 233.241L23.426 233.406L24.8373 233.493L26.2486 233.572C27.1895 233.572 28.1042 233.633 28.9841 233.633C30.2656 233.649 31.5466 233.573 32.8173 233.406H32.9305L33.2529 233.345H33.2964L33.6536 233.267H33.7233L34.0805 233.154L34.6816 232.928L35.2305 232.71C35.9686 232.409 36.6724 232.03 37.33 231.58C37.5437 231.431 37.7474 231.268 37.9398 231.092C38.1226 230.93 38.297 230.759 38.4625 230.579L38.6978 230.301C39.0153 229.903 39.3063 229.484 39.5689 229.048C39.6123 228.98 39.6474 228.907 39.6735 228.831L39.7257 228.7C39.7257 228.631 39.7867 228.561 39.8129 228.474C39.839 228.387 39.8564 228.344 39.8826 228.274C39.9087 228.204 39.9435 228.1 39.9697 227.996C39.9958 227.891 40.0219 227.83 40.0481 227.752C40.0742 227.674 40.1091 227.535 40.1526 227.413L40.231 227.126C40.231 226.995 40.3007 226.865 40.3443 226.726C40.3878 226.586 40.4053 226.491 40.4401 226.378C40.475 226.265 40.5098 226.099 40.5534 225.951L40.6579 225.551C40.6579 225.395 40.7363 225.238 40.7799 225.073L40.8844 224.655L41.0151 224.133C41.0151 223.977 41.0935 223.812 41.1371 223.655L41.2677 223.098C41.2677 222.942 41.3461 222.776 41.3897 222.602C41.4333 222.428 41.4855 222.22 41.5291 222.011L41.6598 221.48C41.7033 221.28 41.7556 221.08 41.7991 220.871C41.8427 220.663 41.895 220.489 41.9385 220.297C41.9821 220.106 42.0344 219.88 42.0866 219.662C42.0866 219.601 42.0866 219.54 42.0866 219.48C42.0866 219.419 42.1476 219.236 42.1737 219.114C42.1999 218.992 42.2783 218.644 42.3393 218.401C42.4003 218.157 42.4177 218.036 42.4612 217.853C42.5048 217.67 42.5745 217.366 42.6268 217.122L42.7574 216.548L42.9143 215.826C42.9665 215.617 43.0101 215.409 43.0536 215.191L43.2105 214.504C43.254 214.286 43.3063 214.06 43.3585 213.843C43.4108 213.625 43.4544 213.382 43.5067 213.156C43.5589 212.929 43.5502 212.947 43.5763 212.842L43.6548 212.477C43.6548 212.251 43.7506 212.025 43.7941 211.799C43.8377 211.572 43.8987 211.355 43.9423 211.129C43.9858 210.903 44.0468 210.668 44.0903 210.433C44.1339 210.198 44.1862 209.98 44.2384 209.763C44.2907 209.546 44.3256 209.319 44.3778 209.102C44.4301 208.884 44.4737 208.623 44.5259 208.389L44.6566 207.754C44.7089 207.536 44.7524 207.31 44.796 207.092C44.8396 206.875 44.8918 206.631 44.9441 206.405L45.0748 205.753C45.1183 205.553 45.1619 205.353 45.1967 205.161C45.2316 204.97 45.2664 204.857 45.2926 204.709L45.3448 204.465C45.3448 204.265 45.4232 204.074 45.4581 203.883C45.4929 203.691 45.5539 203.448 45.5975 203.239C45.641 203.03 45.6672 202.856 45.7107 202.673L45.8414 202.012C45.8414 201.856 45.9024 201.708 45.9372 201.551C45.9721 201.395 45.9982 201.212 46.0331 201.047C46.0372 200.986 46.0372 200.925 46.0331 200.864C46.0331 200.708 46.0941 200.568 46.1202 200.42L46.2509 199.785L46.3293 199.351C46.3728 199.15 46.4077 198.959 46.4425 198.768L46.5209 198.385L46.6255 197.811C46.6255 197.706 46.669 197.611 46.6865 197.506C46.7039 197.402 46.7561 197.124 46.791 196.95L46.8433 196.663C46.8433 196.497 46.9043 196.323 46.9304 196.167C46.9304 195.958 47.0001 195.749 47.0349 195.567C47.183 194.697 47.3921 192.783 47.636 190.086L47.9235 186.755C48.2981 182.31 48.7337 176.603 49.1955 170.349C49.1955 169.775 49.2739 169.2 49.3174 168.609C51.0598 144.939 52.9938 114.546 52.9938 114.546C52.9998 114.263 52.9446 113.982 52.8318 113.722C52.719 113.462 52.5514 113.23 52.3404 113.041Z"
       fill="black"
       id="path262" />
    <path
       d="M9.22579 193.983C9.22579 193.983 8.14553 216.391 8.26749 222.611C8.38946 228.831 8.53755 231.136 11.6215 231.684C14.7055 232.232 26.6058 233.424 29.9163 232.232C33.2268 231.04 34.2722 229.97 35.3873 228.126C36.5024 226.282 41.7469 201.543 42.9317 194.592C44.1165 187.642 48.8993 113.589 48.8993 113.589C48.8993 113.589 49.0822 112.014 45.9111 110.605C43.254 109.431 30.4738 108.866 26.3183 108.726C25.3361 108.692 24.3711 108.991 23.5803 109.574C22.7895 110.156 22.2193 110.989 21.9624 111.936V112.032C21.1261 115.224 9.22579 193.983 9.22579 193.983Z"
       fill="#F45D48"
       id="path264" />
    <path
       opacity="0.5"
       d="M28.1652 232.589C28.757 232.532 29.3411 232.412 29.9076 232.232C33.2529 231.023 34.2635 229.97 35.3786 228.126C36.4937 226.282 41.7382 201.543 42.923 194.592C44.1078 187.642 48.8905 113.589 48.8905 113.589C48.8905 113.589 49.0735 112.014 45.9024 110.605C45.5916 110.478 45.2712 110.377 44.9441 110.301C44.2646 127.481 41.9298 147.888 37.844 172.115C34.0195 195.053 29.6898 222.802 28.1652 232.589Z"
       fill="black"
       id="path266" />
    <path
       d="M9.22579 193.983C9.22579 193.983 8.14553 216.391 8.26749 222.611C8.38946 228.831 8.53755 231.136 11.6215 231.684C14.7055 232.232 26.6058 233.424 29.9163 232.232C33.2268 231.04 34.2722 229.97 35.3873 228.126C36.5024 226.282 41.7469 201.543 42.9317 194.592C44.1165 187.642 48.8992 113.589 48.8992 113.589C48.8992 113.589 49.0822 112.014 45.9111 110.605C43.254 109.431 30.4738 108.866 26.3183 108.726C25.3361 108.692 24.3711 108.991 23.5803 109.574C22.7895 110.156 22.2193 110.989 21.9624 111.936V112.032C21.1261 115.224 9.22579 193.983 9.22579 193.983Z"
       stroke="#1A2E35"
       stroke-linecap="round"
       stroke-linejoin="round"
       id="path268" />
    <path
       d="M33.5578 196.593C29.8379 196.593 13.8169 194.897 11.3427 194.375C10.4716 194.192 9.81817 194.001 9.2432 193.818V193.983C9.2432 193.983 8.16294 216.391 8.2849 222.611C8.40687 228.831 8.55497 231.136 11.6389 231.684C14.7229 232.232 26.6232 233.424 29.9337 232.232C33.2442 231.04 34.2896 229.97 35.4047 228.126C36.5198 226.282 41.5029 202.9 42.8446 195.192C39.717 196.819 36.6243 196.558 33.5578 196.593Z"
       fill="#1A2E35"
       id="path270" />
    <path
       opacity="0.5"
       d="M28.1652 232.589C28.757 232.532 29.3411 232.412 29.9076 232.232C33.2529 231.023 34.2635 229.97 35.3786 228.126C36.4937 226.282 41.7382 201.543 42.923 194.592C44.1078 187.642 48.8905 113.589 48.8905 113.589C48.8905 113.589 49.0735 112.014 45.9024 110.605C45.5916 110.478 45.2712 110.377 44.9441 110.301C44.2646 127.481 41.9298 147.888 37.844 172.115C34.0195 195.053 29.6898 222.802 28.1652 232.589Z"
       fill="black"
       id="path272" />
    <path
       opacity="0.26"
       d="M33.5926 198.663C36.0381 198.563 38.4654 198.199 40.8321 197.576"
       stroke="white"
       stroke-linecap="round"
       stroke-linejoin="round"
       id="path274" />
    <path
       d="M10.489 196.097C10.489 196.097 30.1515 198.785 33.5926 198.663"
       stroke="white"
       stroke-linecap="round"
       stroke-linejoin="round"
       id="path276" />
    <path
       d="M33.5578 196.593C29.8379 196.593 13.8169 194.897 11.3427 194.375C10.4716 194.192 9.81817 194.001 9.2432 193.818V193.983C9.2432 193.983 8.16294 216.391 8.2849 222.611C8.40687 228.831 8.55497 231.136 11.6389 231.684C14.7229 232.232 26.6232 233.424 29.9337 232.232C33.2442 231.04 34.2896 229.97 35.4047 228.126C36.5198 226.282 41.5029 202.9 42.8446 195.192C39.717 196.819 36.6243 196.558 33.5578 196.593Z"
       stroke="#1A2E35"
       stroke-linecap="round"
       stroke-linejoin="round"
       id="path278" />
    <path
       d="M289.776 104.706C308.087 95.1843 315.2 72.6431 305.664 54.3591C296.128 36.0751 273.553 28.9722 255.242 38.4943C236.93 48.0164 229.817 70.5577 239.353 88.8416C248.89 107.126 271.464 114.229 289.776 104.706Z"
       fill="#0E172C"
       id="path280" />
    <path
       d="M306.816 72.5026C309.364 52.0454 294.821 33.3988 274.334 30.8543C253.846 28.3099 235.171 42.8311 232.623 63.2883C230.075 83.7456 244.618 102.392 265.106 104.937C285.593 107.481 304.268 92.9599 306.816 72.5026Z"
       fill="white"
       stroke="#1A2E35"
       stroke-linecap="round"
       stroke-linejoin="round"
       id="path282" />
    <path
       d="M302.955 73.3521C305.969 55.0294 293.538 37.7356 275.188 34.7253C256.838 31.715 239.518 44.1281 236.503 62.4508C233.489 80.7735 245.92 98.0672 264.27 101.078C282.62 104.088 299.94 91.6747 302.955 73.3521Z"
       fill="#0E172C"
       id="path284" />
    <path
       d="M265.779 42.6241C265.779 42.6241 262.068 33.3512 255.569 26.8619C249.07 20.3726 222.595 16.1972 222.595 16.1972C226.883 20.3263 230.779 24.8428 234.234 29.689C240.262 38.0312 260.238 57.0468 260.238 57.0468C260.238 57.0468 250.481 48.6959 241.656 47.7738C232.831 46.8518 210.52 51.436 209.126 51.436C207.733 51.436 217.481 55.1504 224.45 58.3951C231.42 61.6397 258.348 64.4233 258.348 64.4233C258.348 64.4233 246.744 67.668 238.851 70.4516C230.958 73.2352 223.518 93.6339 223.518 93.6339C223.518 93.6339 233.737 84.361 242.562 82.0471C251.387 79.7332 263.924 75.5491 263.924 75.5491C263.924 75.5491 256.031 84.361 254.175 90.3893C252.319 96.4175 253.705 110.327 253.705 110.327C253.705 110.327 257.886 97.3483 263 92.2421C268.114 87.1359 273.681 78.324 273.681 78.324C276.252 82.5156 278.579 86.8519 280.65 91.3113C284.37 99.1925 286.687 110.788 286.687 110.788C286.687 110.788 292.725 97.8007 292.263 91.3113C291.801 84.822 284.832 73.2265 284.832 73.2265C284.832 73.2265 289.475 69.9819 296.445 72.7568C303.414 75.5317 315.48 87.1359 315.48 87.1359C315.48 87.1359 312.692 71.8347 308.049 65.8064C303.405 59.7782 283.438 57.9253 283.438 57.9253C283.438 57.9253 294.58 51.4273 301.55 50.0355C308.519 48.6437 317.806 51.8971 317.806 51.8971C317.806 51.8971 307.125 37.0569 298.762 36.1261C290.399 35.1954 277.854 48.1827 277.854 48.1827C277.854 48.1827 280.641 34.2646 281.574 29.6368C282.506 25.0091 280.641 13.4049 280.641 13.4049C280.641 13.4049 275.536 16.1885 269.499 25.0004C267.727 27.5387 266.485 30.4071 265.845 33.4348C265.206 36.4625 265.184 39.5876 265.779 42.6241Z"
       fill="#078080"
       id="path286" />
    <path
       opacity="0.5"
       d="M265.779 42.6241C265.779 42.6241 262.068 33.3512 255.569 26.8619C249.07 20.3726 222.595 16.1972 222.595 16.1972C226.883 20.3263 230.779 24.8428 234.234 29.689C240.262 38.0312 260.238 57.0468 260.238 57.0468C260.238 57.0468 250.481 48.6959 241.656 47.7738C232.831 46.8518 210.52 51.436 209.126 51.436C207.733 51.436 217.481 55.1504 224.45 58.3951C231.42 61.6397 258.348 64.4233 258.348 64.4233C258.348 64.4233 246.744 67.668 238.851 70.4516C230.958 73.2352 223.518 93.6339 223.518 93.6339C223.518 93.6339 233.737 84.361 242.562 82.0471C251.387 79.7332 263.924 75.5491 263.924 75.5491C263.924 75.5491 256.031 84.361 254.175 90.3893C252.319 96.4175 253.705 110.327 253.705 110.327C253.705 110.327 257.886 97.3483 263 92.2421C268.114 87.1359 273.681 78.324 273.681 78.324C276.252 82.5156 278.579 86.8519 280.65 91.3113C284.37 99.1925 286.687 110.788 286.687 110.788C286.687 110.788 292.725 97.8007 292.263 91.3113C291.801 84.822 284.832 73.2265 284.832 73.2265C284.832 73.2265 289.475 69.9819 296.445 72.7568C303.414 75.5317 315.48 87.1359 315.48 87.1359C315.48 87.1359 312.692 71.8347 308.049 65.8064C303.405 59.7782 283.438 57.9253 283.438 57.9253C283.438 57.9253 294.58 51.4273 301.55 50.0355C308.519 48.6437 317.806 51.8971 317.806 51.8971C317.806 51.8971 307.125 37.0569 298.762 36.1261C290.399 35.1954 277.854 48.1827 277.854 48.1827C277.854 48.1827 280.641 34.2646 281.574 29.6368C282.506 25.0091 280.641 13.4049 280.641 13.4049C280.641 13.4049 275.536 16.1885 269.499 25.0004C267.727 27.5387 266.485 30.4071 265.845 33.4348C265.206 36.4625 265.184 39.5876 265.779 42.6241Z"
       fill="black"
       id="path288" />
    <path
       d="M274.935 28.5147C275.258 27.1838 275.606 25.8528 275.998 24.548"
       stroke="#1A2E35"
       stroke-width="0.5"
       stroke-linecap="round"
       stroke-linejoin="round"
       id="path290" />
    <path
       d="M243.913 28.5147C248.268 31.681 253.696 36.0391 256.492 39.8231C261.606 46.7822 271.816 61.6136 271.816 61.6136C271.526 51.6496 272.318 41.6835 274.177 31.8898"
       stroke="#1A2E35"
       stroke-width="0.5"
       stroke-linecap="round"
       stroke-linejoin="round"
       id="path292" />
    <path
       d="M237.457 24.0783C237.457 24.0783 238.816 24.9482 240.837 26.3313"
       stroke="#1A2E35"
       stroke-width="0.5"
       stroke-linecap="round"
       stroke-linejoin="round"
       id="path294" />
    <path
       d="M271.816 61.6397C271.816 61.6397 289.466 44.0159 296.898 42.6241C304.329 41.2323 310.836 46.7996 310.836 46.7996"
       stroke="#1A2E35"
       stroke-width="0.5"
       stroke-linecap="round"
       stroke-linejoin="round"
       id="path296" />
    <path
       d="M240.28 76.3755C235.985 79.1069 235.593 80.6553 235.593 80.6553"
       stroke="#1A2E35"
       stroke-width="0.5"
       stroke-linecap="round"
       stroke-linejoin="round"
       id="path298" />
    <path
       d="M310.366 77.8717C310.366 77.8717 307.578 70.9126 297.821 67.668C288.064 64.4233 272.749 63.9623 272.749 63.9623C272.749 63.9623 251.257 70.9822 243.399 74.6444"
       stroke="#1A2E35"
       stroke-width="0.5"
       stroke-linecap="round"
       stroke-linejoin="round"
       id="path300" />
    <path
       d="M263.366 61.3092C268.593 62.8141 272.749 63.9188 272.749 63.9188"
       stroke="#1A2E35"
       stroke-width="0.5"
       stroke-linecap="round"
       stroke-linejoin="round"
       id="path302" />
    <path
       d="M230.653 53.0714C235.706 53.3759 242.196 54.0631 245.812 55.6114C248.756 56.8728 254.523 58.7082 260.038 60.3349"
       stroke="#1A2E35"
       stroke-width="0.5"
       stroke-linecap="round"
       stroke-linejoin="round"
       id="path304" />
    <path
       d="M223.518 52.8278C223.518 52.8278 225.217 52.8278 227.726 52.9235"
       stroke="#1A2E35"
       stroke-width="0.5"
       stroke-linecap="round"
       stroke-linejoin="round"
       id="path306" />
    <path
       d="M271.816 66.7372C271.816 66.7372 258.818 86.2138 257.878 90.8503C257.324 93.6013 257.015 96.3958 256.954 99.2011"
       stroke="#1A2E35"
       stroke-width="0.5"
       stroke-linecap="round"
       stroke-linejoin="round"
       id="path308" />
    <path
       d="M277.601 72.8699C280.101 76.0971 283.107 80.403 284.361 83.9C285.825 88.1223 286.912 92.4653 287.611 96.8786"
       stroke="#1A2E35"
       stroke-width="0.5"
       stroke-linecap="round"
       stroke-linejoin="round"
       id="path310" />
    <path
       d="M273.681 68.129C273.681 68.129 274.709 69.2773 276.146 71.0431"
       stroke="#1A2E35"
       stroke-width="0.5"
       stroke-linecap="round"
       stroke-linejoin="round"
       id="path312" />
    <path
       d="M259.881 46.6256C259.881 46.6256 257.486 36.9264 259.01 27.871C260.535 18.8155 279.561 0.0348053 279.561 0.0348053C278.493 5.86883 277.965 11.7887 277.984 17.7195C277.984 28.0189 272.844 55.1243 272.844 55.1243C272.844 55.1243 275.885 42.6676 282.514 36.7698C289.144 30.8721 309.948 21.6687 311.08 20.851C312.213 20.0333 306.463 28.7322 302.7 35.4302C298.936 42.1283 278.664 59.9956 278.664 59.9956C278.664 59.9956 289.989 55.8724 298.03 53.5324C306.071 51.1925 323.965 63.4404 323.965 63.4404C323.965 63.4404 310.253 61.8572 301.733 65.1193C293.213 68.3813 280.624 72.3132 280.624 72.3132C280.624 72.3132 292.185 74.8706 297.176 78.6807C302.168 82.4908 309.199 94.6082 309.199 94.6082C309.199 94.6082 298.222 86.5009 291.096 85.3266C283.969 84.1522 274.308 80.2204 274.308 80.2204C274.67 85.1215 275.313 89.9979 276.233 94.8257C277.819 103.394 282.706 114.163 282.706 114.163C282.706 114.163 270.222 107.134 266.807 101.593C263.392 96.0522 262.277 82.5691 262.277 82.5691C262.277 82.5691 256.606 82.6386 252.572 88.954C248.538 95.2693 245.559 111.719 245.559 111.719C245.559 111.719 238.886 97.6702 239.13 90.0674C239.374 82.4647 254.524 69.3295 254.524 69.3295C254.524 69.3295 241.674 70.5473 235.201 73.4788C228.728 76.4103 223.048 84.4915 223.048 84.4915C223.048 84.4915 223.048 66.224 229.312 60.5959C235.575 54.9677 253.321 58.2211 253.321 58.2211C253.321 58.2211 242.946 48.4958 239.461 45.2773C235.976 42.0587 230.749 31.5506 230.749 31.5506C230.749 31.5506 236.525 30.8373 246.57 34.4734C249.491 35.5041 252.175 37.1111 254.462 39.1988C256.749 41.2865 258.592 43.8122 259.881 46.6256Z"
       fill="#078080"
       id="path314" />
    <path
       d="M244.209 40.4842C243.163 39.6144 242.101 38.7445 241.02 37.8746"
       stroke="#1A2E35"
       stroke-width="0.5"
       stroke-linecap="round"
       stroke-linejoin="round"
       id="path316" />
    <path
       d="M269.403 22.4168C267.713 27.5317 265.849 34.2385 265.797 38.9445C265.718 47.5737 266.084 65.5716 266.084 65.5716C260.502 57.306 254.038 49.6701 246.805 42.7981"
       stroke="#1A2E35"
       stroke-width="0.5"
       stroke-linecap="round"
       stroke-linejoin="round"
       id="path318" />
    <path
       d="M272.06 15.0576C272.06 15.0576 271.459 16.5451 270.623 18.859"
       stroke="#1A2E35"
       stroke-width="0.5"
       stroke-linecap="round"
       stroke-linejoin="round"
       id="path320" />
    <path
       d="M266.084 65.5803C266.084 65.5803 241.456 61.5441 234.608 64.7104C227.761 67.8768 225.731 76.2102 225.731 76.2102"
       stroke="#1A2E35"
       stroke-width="0.5"
       stroke-linecap="round"
       stroke-linejoin="round"
       id="path322" />
    <path
       d="M300.313 59.1867C305.4 58.8996 306.611 59.9261 306.611 59.9261"
       stroke="#1A2E35"
       stroke-width="0.5"
       stroke-linecap="round"
       stroke-linejoin="round"
       id="path324" />
    <path
       d="M244.252 101.211C244.252 101.211 242.458 93.9384 248.478 85.6223C254.497 77.3063 266.685 68.0072 266.685 68.0072C266.685 68.0072 288.238 61.1961 296.767 59.5955"
       stroke="#1A2E35"
       stroke-width="0.5"
       stroke-linecap="round"
       stroke-linejoin="round"
       id="path326" />
    <path
       d="M272.757 60.3958C269.421 64.6408 266.659 68.0072 266.659 68.0072"
       stroke="#1A2E35"
       stroke-width="0.5"
       stroke-linecap="round"
       stroke-linejoin="round"
       id="path328" />
    <path
       d="M294.519 34.6473C290.59 37.8398 285.72 42.1805 283.691 45.5382C282.027 48.2784 278.385 53.1497 274.892 57.6557"
       stroke="#1A2E35"
       stroke-width="0.5"
       stroke-linecap="round"
       stroke-linejoin="round"
       id="path332" />
    <path
       d="M300.165 30.2979C300.165 30.2979 298.788 31.2896 296.81 32.8293"
       stroke="#1A2E35"
       stroke-width="0.5"
       stroke-linecap="round"
       stroke-linejoin="round"
       id="path334" />
    <path
       d="M269.081 69.7035C269.081 69.7035 291.017 77.95 294.484 81.1685C296.541 83.0804 298.425 85.1705 300.112 87.4143"
       stroke="#1A2E35"
       stroke-width="0.5"
       stroke-linecap="round"
       stroke-linejoin="round"
       id="path336" />
    <path
       d="m 268.062,75.7405 c -0.148,4.0798 -0.078,9.3252 0.95,12.8917 1.277,4.2847 2.933,8.4475 4.948,12.4396"
       stroke="#1a2e35"
       stroke-width="0.5"
       stroke-linecap="round"
       stroke-linejoin="round"
       id="path338" />
    <path
       d="M268.367 71.9391C268.367 71.9391 268.201 73.4701 268.062 75.7405"
       stroke="#1A2E35"
       stroke-width="0.5"
       stroke-linecap="round"
       stroke-linejoin="round"
       id="path340" />
    <path
       d="M161.804 184.267C161.804 184.267 153.711 182.631 148.423 184.075C148.423 184.075 156.194 187.877 160.907 188.425L161.804 184.267Z"
       fill="#1A2E35"
       stroke="#1A2E35"
       stroke-miterlimit="10"
       stroke-linecap="round"
       id="path362" />
    <path
       d="M277.253 200.064L162.396 183.023C161.849 182.941 161.29 183.066 160.83 183.374C160.369 183.681 160.039 184.148 159.905 184.684L159.347 186.911C159.273 187.2 159.258 187.502 159.303 187.797C159.348 188.092 159.453 188.375 159.611 188.629C159.769 188.883 159.977 189.102 160.222 189.273C160.467 189.444 160.745 189.564 161.037 189.625L274.683 214.165C275.643 214.37 276.635 214.377 277.598 214.185C278.561 213.993 279.475 213.606 280.282 213.047C281.09 212.489 281.774 211.771 282.293 210.938C282.811 210.106 283.154 209.176 283.299 208.206C283.578 206.326 283.098 204.412 281.964 202.885C280.83 201.358 279.136 200.343 277.253 200.064Z"
       fill="#F45D48"
       stroke="#1A2E35"
       stroke-miterlimit="10"
       stroke-linecap="round"
       id="path364" />
    <path
       d="M277.253 200.064L259.89 197.454C258.303 198.414 257.064 199.855 256.355 201.566C255.645 203.278 255.501 205.172 255.944 206.971C256.239 208.239 256.81 209.427 257.616 210.45L274.683 214.138C275.643 214.344 276.635 214.351 277.598 214.159C278.561 213.967 279.475 213.58 280.282 213.021C281.09 212.463 281.774 211.745 282.293 210.912C282.811 210.08 283.154 209.15 283.299 208.18C283.57 206.304 283.087 204.396 281.954 202.875C280.821 201.354 279.13 200.343 277.253 200.064Z"
       fill="#1A2E35"
       stroke="#1A2E35"
       stroke-miterlimit="10"
       stroke-linecap="round"
       id="path366" />
    <path
       d="M166.003 179.961C166.003 179.961 167.17 180.518 169.645 179.517C172.119 178.517 176.928 173.237 176.98 172.558C177.032 171.88 166.395 176.325 166.003 179.961Z"
       fill="white"
       stroke="#1A2E35"
       stroke-miterlimit="10"
       stroke-linecap="round"
       id="path386" />
  </g>
  <defs
     id="defs397">
    <clipPath
       id="clip0">
      <rect
         width="324"
         height="336"
         fill="white"
         id="rect394" />
    </clipPath>
  </defs>
</svg>
