<?xml version="1.0" encoding="UTF-8" standalone="no"?>
<svg
   xmlns:dc="http://purl.org/dc/elements/1.1/"
   xmlns:cc="http://creativecommons.org/ns#"
   xmlns:rdf="http://www.w3.org/1999/02/22-rdf-syntax-ns#"
   xmlns:svg="http://www.w3.org/2000/svg"
   xmlns="http://www.w3.org/2000/svg"
   width="324"
   height="336"
   viewBox="0 0 324 336"
   fill="none"
   version="1.1"
   id="svg399">
  <metadata
     id="metadata182">
    <rdf:RDF>
      <cc:Work
         rdf:about="">
        <dc:format>image/svg+xml</dc:format>
        <dc:type
           rdf:resource="http://purl.org/dc/dcmitype/StillImage" />
        <dc:title></dc:title>
      </cc:Work>
    </rdf:RDF>
  </metadata>
  <g
     clip-path="url(#clip0)"
     id="g392"
     transform="matrix(1.3688908,0,0,1.3688908,30.924461,-0.77441333)">
    <g
       id="g1136"
       transform="rotate(8.5342981,574.13825,-238.87251)">
      <path
         opacity="0.3"
         d="m 231.62,80.0638 c 0.168,-0.0815 0.306,-0.2149 0.392,-0.3803 0.086,-0.1654 0.117,-0.3542 0.088,-0.5385 -0.029,-0.1842 -0.117,-0.3542 -0.251,-0.4848 -0.133,-0.1306 -0.305,-0.2149 -0.49,-0.2405 l -3.302,0.5219 -0.096,-0.635 3.302,-0.5132 c 0.136,0.022 0.275,0.0116 0.406,-0.0303 0.131,-0.0419 0.25,-0.1142 0.347,-0.2108 0.098,-0.0967 0.171,-0.2151 0.214,-0.3454 0.043,-0.1304 0.055,-0.2691 0.034,-0.4048 -0.021,-0.1356 -0.074,-0.2644 -0.154,-0.3758 -0.081,-0.1114 -0.186,-0.2021 -0.309,-0.265 -0.122,-0.0628 -0.257,-0.0958 -0.395,-0.0964 -0.137,-6e-4 -0.273,0.0313 -0.396,0.0931 l -3.31,0.5133 -0.706,-4.5408 -9.905,-8.9511 -129.8666,238.3476 9.9489,6.715 162.6837,-25.279 -1.812,-11.665 3.302,-0.513 c 0.212,-0.042 0.401,-0.162 0.53,-0.335 0.129,-0.174 0.188,-0.389 0.167,-0.604 -0.042,-0.214 -0.164,-0.404 -0.339,-0.533 -0.176,-0.129 -0.394,-0.187 -0.611,-0.163 l -3.302,0.513 -0.104,-0.626 3.31,-0.514 c 0.168,-0.081 0.306,-0.215 0.392,-0.38 0.087,-0.165 0.117,-0.354 0.088,-0.538 -0.029,-0.185 -0.117,-0.355 -0.251,-0.485 -0.133,-0.131 -0.305,-0.215 -0.49,-0.241 l -3.302,0.514 -0.958,-6.09 3.31,-0.513 c 0.169,-0.081 0.306,-0.215 0.392,-0.38 0.087,-0.166 0.117,-0.354 0.088,-0.539 -0.029,-0.184 -0.117,-0.354 -0.25,-0.484 -0.134,-0.131 -0.306,-0.215 -0.491,-0.241 l -3.302,0.513 -0.095,-0.626 3.301,-0.513 c 0.168,-0.081 0.306,-0.214 0.392,-0.379 0.087,-0.164 0.119,-0.353 0.091,-0.537 -0.029,-0.184 -0.115,-0.354 -0.248,-0.485 -0.132,-0.131 -0.303,-0.216 -0.487,-0.243 l -3.311,0.513 -0.949,-6.089 3.301,-0.513 c 0.168,-0.081 0.306,-0.214 0.393,-0.379 0.086,-0.165 0.118,-0.353 0.09,-0.537 -0.029,-0.184 -0.115,-0.354 -0.248,-0.485 -0.132,-0.131 -0.303,-0.217 -0.487,-0.244 l -3.311,0.514 -0.096,-0.627 3.311,-0.513 c 0.136,0.021 0.274,0.01 0.405,-0.033 0.13,-0.043 0.249,-0.116 0.345,-0.213 0.097,-0.097 0.17,-0.216 0.212,-0.346 0.042,-0.131 0.053,-0.269 0.031,-0.405 -0.022,-0.135 -0.075,-0.263 -0.156,-0.374 -0.08,-0.111 -0.186,-0.201 -0.309,-0.264 -0.122,-0.062 -0.257,-0.094 -0.394,-0.094 -0.138,-0.001 -0.273,0.032 -0.396,0.094 l -3.301,0.513 -0.959,-6.133 3.311,-0.513 c 0.164,-0.083 0.298,-0.217 0.382,-0.381 0.084,-0.164 0.113,-0.35 0.084,-0.532 -0.029,-0.181 -0.115,-0.349 -0.246,-0.479 -0.131,-0.13 -0.299,-0.215 -0.481,-0.243 l -3.302,0.513 -0.096,-0.635 3.302,-0.513 c 0.233,-0.038 0.442,-0.167 0.58,-0.359 0.138,-0.192 0.194,-0.43 0.156,-0.663 -0.038,-0.233 -0.167,-0.442 -0.359,-0.58 -0.192,-0.137 -0.431,-0.194 -0.665,-0.155 l -3.31,0.513 -0.95,-6.133 3.302,-0.513 c 0.164,-0.083 0.298,-0.215 0.382,-0.379 0.085,-0.163 0.115,-0.349 0.087,-0.53 -0.028,-0.182 -0.113,-0.35 -0.243,-0.481 -0.129,-0.13 -0.297,-0.216 -0.479,-0.245 l -3.31,0.513 -0.096,-0.635 3.302,-0.514 c 0.135,0.022 0.274,0.012 0.405,-0.03 0.131,-0.042 0.25,-0.114 0.348,-0.211 0.098,-0.096 0.171,-0.215 0.214,-0.345 0.043,-0.13 0.054,-0.269 0.033,-0.405 -0.021,-0.135 -0.073,-0.264 -0.154,-0.376 -0.08,-0.111 -0.186,-0.202 -0.308,-0.265 -0.122,-0.062 -0.258,-0.095 -0.395,-0.096 -0.137,-0.001 -0.273,0.031 -0.396,0.093 l -3.302,0.513 -0.958,-6.132 3.302,-0.514 c 0.136,0.022 0.275,0.012 0.405,-0.03 0.131,-0.042 0.25,-0.114 0.348,-0.211 0.098,-0.096 0.171,-0.215 0.214,-0.345 0.043,-0.13 0.054,-0.269 0.033,-0.405 -0.021,-0.135 -0.073,-0.264 -0.154,-0.376 -0.08,-0.111 -0.186,-0.202 -0.308,-0.265 -0.122,-0.062 -0.257,-0.095 -0.395,-0.096 -0.137,-0.001 -0.273,0.031 -0.396,0.093 l -3.302,0.513 -0.104,-0.626 3.31,-0.522 c 0.165,-0.083 0.299,-0.215 0.383,-0.379 0.084,-0.163 0.114,-0.349 0.086,-0.53 -0.028,-0.182 -0.113,-0.35 -0.242,-0.48 -0.13,-0.131 -0.298,-0.217 -0.479,-0.246 l -3.311,0.513 -0.949,-6.133 3.301,-0.513 c 0.165,-0.083 0.299,-0.215 0.383,-0.379 0.084,-0.163 0.114,-0.349 0.086,-0.53 -0.028,-0.182 -0.113,-0.35 -0.242,-0.48 -0.13,-0.131 -0.298,-0.217 -0.479,-0.246 l -3.311,0.513 -0.096,-0.626 3.302,-0.514 c 0.135,0.02 0.273,0.008 0.402,-0.035 0.129,-0.043 0.247,-0.116 0.343,-0.212 0.096,-0.097 0.168,-0.215 0.21,-0.344 0.042,-0.129 0.053,-0.267 0.032,-0.401 -0.02,-0.135 -0.072,-0.263 -0.151,-0.373 -0.079,-0.111 -0.183,-0.202 -0.304,-0.265 -0.121,-0.064 -0.254,-0.098 -0.391,-0.1 -0.136,-0.002 -0.271,0.027 -0.393,0.086 l -3.302,0.514 -0.958,-6.09 3.301,-0.513 c 0.135,0.02 0.273,0.008 0.402,-0.035 0.129,-0.043 0.247,-0.116 0.343,-0.213 0.096,-0.096 0.168,-0.214 0.21,-0.343 0.042,-0.13 0.053,-0.267 0.033,-0.402 -0.021,-0.134 -0.073,-0.262 -0.152,-0.373 -0.079,-0.11 -0.183,-0.201 -0.304,-0.264 -0.12,-0.064 -0.254,-0.098 -0.391,-0.1 -0.136,-0.003 -0.271,0.027 -0.393,0.086 l -3.302,0.513 -0.105,-0.626 3.311,-0.513 c 0.135,0.021 0.274,0.009 0.405,-0.034 0.13,-0.042 0.249,-0.115 0.345,-0.212 0.097,-0.098 0.17,-0.216 0.212,-0.347 0.042,-0.13 0.053,-0.269 0.031,-0.404 -0.022,-0.135 -0.075,-0.264 -0.156,-0.375 -0.08,-0.11 -0.186,-0.201 -0.309,-0.263 -0.122,-0.062 -0.257,-0.095 -0.394,-0.095 -0.138,0 -0.273,0.032 -0.396,0.094 l -3.301,0.514 -0.959,-6.133 3.311,-0.513 c 0.168,-0.082 0.305,-0.215 0.392,-0.381 0.086,-0.165 0.117,-0.354 0.088,-0.538 -0.03,-0.184 -0.118,-0.354 -0.251,-0.485 -0.133,-0.131 -0.305,-0.215 -0.49,-0.24 l -3.302,0.522 -0.096,-0.635 3.302,-0.514 c 0.135,0.022 0.274,0.012 0.405,-0.03 0.131,-0.042 0.25,-0.114 0.348,-0.211 0.097,-0.097 0.171,-0.215 0.214,-0.345 0.043,-0.131 0.054,-0.269 0.033,-0.405 -0.021,-0.136 -0.073,-0.264 -0.154,-0.376 -0.08,-0.111 -0.186,-0.202 -0.308,-0.265 -0.122,-0.063 -0.258,-0.096 -0.395,-0.096 -0.138,-0.001 -0.273,0.031 -0.396,0.093 l -3.302,0.513 -0.958,-6.132 3.302,-0.514 c 0.135,0.022 0.274,0.012 0.405,-0.03 0.131,-0.042 0.25,-0.114 0.348,-0.211 0.098,-0.097 0.171,-0.215 0.214,-0.345 0.043,-0.131 0.054,-0.269 0.033,-0.405 -0.021,-0.136 -0.073,-0.264 -0.154,-0.376 -0.08,-0.111 -0.186,-0.202 -0.308,-0.265 -0.122,-0.063 -0.258,-0.096 -0.395,-0.096 -0.137,-0.001 -0.273,0.031 -0.396,0.093 l -3.302,0.513 -0.104,-0.635 3.31,-0.513 c 0.165,-0.083 0.298,-0.217 0.382,-0.381 0.084,-0.164 0.113,-0.35 0.084,-0.532 -0.029,-0.182 -0.115,-0.35 -0.246,-0.479 -0.13,-0.13 -0.299,-0.215 -0.481,-0.243 l -3.302,0.513 -0.958,-6.133 3.31,-0.513 c 0.136,0.021 0.275,0.009 0.405,-0.033 0.131,-0.043 0.249,-0.116 0.346,-0.213 0.097,-0.097 0.169,-0.216 0.211,-0.347 0.043,-0.13 0.053,-0.269 0.032,-0.404 -0.022,-0.135 -0.075,-0.264 -0.156,-0.374 -0.081,-0.111 -0.187,-0.202 -0.309,-0.264 -0.122,-0.062 -0.258,-0.095 -0.395,-0.095 -0.137,0 -0.273,0.032 -0.395,0.094 l -3.302,0.514 -0.096,-0.635 3.302,-0.514 c 0.212,-0.042 0.401,-0.161 0.53,-0.335 0.129,-0.174 0.189,-0.389 0.167,-0.604 -0.042,-0.214 -0.163,-0.404 -0.339,-0.532 -0.176,-0.129 -0.394,-0.188 -0.61,-0.164 l -3.311,0.513 -0.95,-6.132 3.302,-0.514 c 0.213,-0.042 0.401,-0.161 0.53,-0.335 0.129,-0.174 0.189,-0.389 0.167,-0.604 -0.042,-0.214 -0.163,-0.404 -0.339,-0.533 -0.176,-0.128 -0.394,-0.187 -0.61,-0.163 l -3.311,0.513 -0.096,-0.626 3.302,-0.513 c 0.168,-0.081 0.305,-0.214 0.392,-0.379 0.087,-0.164 0.119,-0.353 0.09,-0.537 -0.028,-0.184 -0.115,-0.354 -0.247,-0.485 -0.132,-0.131 -0.303,-0.216 -0.488,-0.243 l -3.301,0.513 -0.959,-6.089 3.302,-0.513 c 0.135,0.019 0.273,0.007 0.402,-0.036 0.129,-0.043 0.246,-0.116 0.342,-0.212 0.096,-0.097 0.168,-0.214 0.211,-0.344 0.042,-0.129 0.053,-0.267 0.032,-0.401 -0.02,-0.135 -0.072,-0.262 -0.151,-0.373 -0.079,-0.111 -0.183,-0.202 -0.304,-0.265 -0.121,-0.063 -0.254,-0.098 -0.391,-0.1 -0.136,-0.002 -0.271,0.027 -0.394,0.086 l -3.301,0.514 -0.096,-0.627 3.302,-0.513 c 0.168,-0.081 0.305,-0.213 0.392,-0.378 0.087,-0.165 0.118,-0.353 0.09,-0.537 -0.028,-0.184 -0.115,-0.354 -0.247,-0.485 -0.133,-0.132 -0.304,-0.217 -0.488,-0.244 l -3.31,0.513 -0.95,-6.089 3.302,-0.513 c 0.168,-0.081 0.305,-0.214 0.392,-0.378 0.087,-0.165 0.118,-0.353 0.09,-0.537 -0.028,-0.184 -0.115,-0.355 -0.247,-0.486 -0.132,-0.131 -0.303,-0.216 -0.488,-0.243 l -3.31,0.513 -0.096,-0.626 3.302,-0.514 c 0.135,0.022 0.274,0.012 0.405,-0.03 0.131,-0.042 0.25,-0.114 0.348,-0.211 0.097,-0.096 0.171,-0.215 0.214,-0.345 0.043,-0.13 0.054,-0.269 0.033,-0.405 -0.021,-0.135 -0.074,-0.264 -0.154,-0.376 -0.08,-0.111 -0.186,-0.202 -0.308,-0.265 -0.122,-0.062 -0.258,-0.095 -0.395,-0.096 -0.138,-0.001 -0.273,0.031 -0.396,0.093 l -3.302,0.513 -0.958,-6.132 3.302,-0.514 c 0.214,-0.042 0.404,-0.163 0.533,-0.338 0.129,-0.176 0.187,-0.393 0.164,-0.61 -0.016,-0.108 -0.054,-0.211 -0.11,-0.305 -0.057,-0.093 -0.132,-0.174 -0.22,-0.238 -0.089,-0.064 -0.189,-0.11 -0.296,-0.135 -0.106,-0.024 -0.216,-0.027 -0.324,-0.009 l -3.302,0.513 -0.104,-0.635 3.31,-0.513 c 0.165,-0.083 0.298,-0.216 0.382,-0.381 0.084,-0.164 0.113,-0.35 0.084,-0.532 -0.029,-0.181 -0.115,-0.349 -0.246,-0.479 -0.13,-0.13 -0.299,-0.215 -0.481,-0.243 l -3.302,0.513 -0.958,-6.133 3.31,-0.513 c 0.115,-0.016 0.226,-0.055 0.326,-0.114 0.099,-0.059 0.186,-0.137 0.255,-0.231 0.069,-0.093 0.119,-0.199 0.146,-0.311 0.028,-0.113 0.032,-0.23 0.014,-0.344 -0.016,-0.107 -0.053,-0.21 -0.109,-0.303 -0.056,-0.093 -0.13,-0.173 -0.218,-0.237 -0.087,-0.064 -0.187,-0.11 -0.292,-0.135 -0.106,-0.026 -0.215,-0.03 -0.322,-0.013 l -3.311,0.514 -0.104,-0.696 3.302,-0.513 c 0.135,0.022 0.274,0.011 0.405,-0.031 0.131,-0.042 0.25,-0.114 0.348,-0.211 0.097,-0.096 0.171,-0.215 0.214,-0.345 0.043,-0.13 0.054,-0.269 0.033,-0.405 -0.021,-0.135 -0.074,-0.264 -0.154,-0.375 -0.08,-0.112 -0.186,-0.203 -0.308,-0.266 -0.122,-0.062 -0.258,-0.095 -0.395,-0.096 -0.138,-10e-4 -0.273,0.031 -0.396,0.093 l -3.302,0.513 -0.958,-6.132 3.302,-0.513 c 0.135,0.022 0.274,0.011 0.405,-0.031 0.131,-0.042 0.25,-0.114 0.348,-0.211 0.097,-0.096 0.171,-0.215 0.214,-0.345 0.043,-0.13 0.054,-0.269 0.033,-0.405 -0.021,-0.135 -0.074,-0.264 -0.154,-0.376 -0.08,-0.111 -0.186,-0.202 -0.308,-0.265 -0.122,-0.062 -0.258,-0.095 -0.395,-0.096 -0.138,-10e-4 -0.273,0.031 -0.396,0.093 l -3.302,0.513 -0.104,-0.626 3.31,-0.522 c 0.107,-0.016 0.21,-0.053 0.303,-0.109 0.093,-0.056 0.174,-0.13 0.238,-0.217 0.064,-0.087 0.11,-0.187 0.135,-0.292 0.026,-0.105 0.03,-0.214 0.012,-0.321 -0.042,-0.214 -0.163,-0.404 -0.339,-0.533 -0.176,-0.129 -0.393,-0.187 -0.61,-0.163 l -3.302,0.513 -0.958,-6.133 3.31,-0.513 c 0.107,-0.016 0.211,-0.053 0.303,-0.1087 0.093,-0.056 0.174,-0.1298 0.238,-0.2172 0.064,-0.0874 0.11,-0.1867 0.135,-0.292 0.026,-0.1053 0.03,-0.2146 0.012,-0.3215 -0.042,-0.2136 -0.163,-0.4036 -0.339,-0.5324 -0.176,-0.1289 -0.393,-0.1872 -0.61,-0.1634 l -3.302,0.5132 -0.096,-0.6263 3.302,-0.5133 c 0.168,-0.0809 0.305,-0.2135 0.392,-0.3782 0.087,-0.1648 0.119,-0.353 0.09,-0.537 -0.028,-0.1841 -0.115,-0.3542 -0.247,-0.4854 -0.132,-0.1311 -0.303,-0.2165 -0.488,-0.2434 l -3.31,0.5132 -0.967,-6.124 3.302,-0.5132 c 0.168,-0.0809 0.305,-0.2135 0.392,-0.3783 0.087,-0.1647 0.118,-0.353 0.09,-0.537 -0.028,-0.184 -0.115,-0.3541 -0.247,-0.4853 -0.133,-0.1312 -0.303,-0.2165 -0.488,-0.2435 l -3.31,0.5133 -0.096,-0.6263 3.31,-0.5133 c 0.136,0.0209 0.275,0.0096 0.405,-0.0332 0.13,-0.0428 0.249,-0.1158 0.346,-0.2129 0.097,-0.0972 0.169,-0.2158 0.211,-0.3463 0.042,-0.1304 0.053,-0.269 0.031,-0.4043 -0.021,-0.1354 -0.075,-0.2637 -0.155,-0.3746 -0.081,-0.1109 -0.187,-0.2011 -0.309,-0.2633 -0.123,-0.0623 -0.258,-0.0948 -0.395,-0.095 -0.137,-1e-4 -0.273,0.0322 -0.395,0.0943 l -3.302,0.5132 -0.958,-6.1327 z"
         fill="#000000"
         id="path6" />
      <path
         d="M 92.4756,303.806 243.32,280.319 209.658,64.3363 58.8046,87.7709 c -1.8481,0.289 -3.5057,1.2989 -4.6084,2.8078 -1.1026,1.5088 -1.5602,3.3931 -1.2721,5.2386 l 31.467,202.1077 c 0.141,0.918 0.4625,1.798 0.9459,2.591 0.4834,0.793 1.1191,1.483 1.8706,2.03 0.7515,0.546 1.6038,0.939 2.5079,1.155 0.9041,0.217 1.8422,0.252 2.7601,0.105 z"
         fill="#1a2e35"
         stroke="#1a2e35"
         stroke-miterlimit="10"
         stroke-linecap="round"
         id="path8" />
      <path
         d="m 95.2553,296.261 -8.608,1.338 c -0.605,0.094 -1.2227,-0.055 -1.7171,-0.416 -0.4944,-0.361 -0.8251,-0.903 -0.9193,-1.507 l -3.029,-19.425 c -0.0942,-0.604 0.0558,-1.221 0.417,-1.714 0.3612,-0.494 0.9039,-0.824 1.5089,-0.918 l 8.6081,-1.339 z"
         fill="#ffffff"
         stroke="#1a2e35"
         stroke-miterlimit="10"
         stroke-linecap="round"
         id="path10" />
      <path
         d="m 91.3305,271.035 -8.608,1.339 c -0.605,0.094 -1.2227,-0.056 -1.7171,-0.417 -0.4944,-0.36 -0.8251,-0.902 -0.9193,-1.506 l -3.029,-19.426 c -0.0942,-0.604 0.0558,-1.22 0.417,-1.714 0.3611,-0.494 0.9039,-0.824 1.5089,-0.918 l 8.6081,-1.338 z"
         fill="#f45d48"
         stroke="#1a2e35"
         stroke-miterlimit="10"
         stroke-linecap="round"
         id="path12" />
      <path
         d="m 87.407,245.826 -8.6081,1.338 c -0.605,0.094 -1.2227,-0.056 -1.7171,-0.416 -0.4944,-0.361 -0.825,-0.903 -0.9192,-1.507 l -3.0291,-19.425 c -0.0942,-0.604 0.0558,-1.221 0.417,-1.715 0.3612,-0.493 0.904,-0.823 1.509,-0.918 l 8.608,-1.338 z"
         fill="#ffffff"
         stroke="#1a2e35"
         stroke-miterlimit="10"
         stroke-linecap="round"
         id="path14" />
      <path
         d="m 83.4821,220.609 -8.608,1.338 c -0.605,0.094 -1.2227,-0.055 -1.7171,-0.416 -0.4944,-0.361 -0.825,-0.903 -0.9192,-1.507 L 69.202,200.556 c -0.0942,-0.604 0.0558,-1.221 0.417,-1.715 0.3612,-0.493 0.904,-0.823 1.509,-0.917 l 8.608,-1.339 z"
         fill="#f45d48"
         stroke="#1a2e35"
         stroke-miterlimit="10"
         stroke-linecap="round"
         id="path16" />
      <path
         d="m 67.2463,172.732 5.1486,-0.8 L 59.2663,87.7013 217.089,63.1794 250.786,279.206 92.9373,303.701 76.1323,195.923 l -5.1487,0.8 c -0.6026,0.088 -1.2154,-0.066 -1.7049,-0.428 -0.4895,-0.362 -0.8161,-0.902 -0.9086,-1.503 l -3.0317,-19.424 c -0.0932,-0.602 0.0549,-1.216 0.412,-1.709 0.3571,-0.493 0.8946,-0.826 1.4959,-0.927 z"
         fill="#ffffff"
         stroke="#1a2e35"
         stroke-miterlimit="10"
         stroke-linecap="round"
         id="path18" />
      <path
         opacity="0.5"
         d="m 84.121,133.727 0.514,11.804 58.9,-9.595 -1.542,-9.882 z"
         fill="#f45d48"
         id="path20" />
      <path
         d="m 208.316,76.419 c 0.095,0.6014 0.367,1.1611 0.781,1.6084 0.413,0.4473 0.95,0.7621 1.543,0.9047 0.593,0.1426 1.215,0.1066 1.787,-0.1036 0.572,-0.2101 1.069,-0.5849 1.428,-1.077 0.359,-0.4922 0.564,-1.0795 0.589,-1.6878 0.025,-0.6083 -0.132,-1.2103 -0.449,-1.73 -0.318,-0.5196 -0.783,-0.9335 -1.336,-1.1894 -0.554,-0.2559 -1.17,-0.3423 -1.773,-0.2483 -0.4,0.0625 -0.785,0.2032 -1.131,0.4142 -0.346,0.211 -0.647,0.488 -0.885,0.8152 -0.239,0.3272 -0.411,0.6982 -0.506,1.0918 -0.095,0.3935 -0.111,0.8019 -0.048,1.2018 z"
         fill="#1a2e35"
         stroke="#1a2e35"
         stroke-miterlimit="10"
         stroke-linecap="round"
         id="path22" />
      <path
         d="m 211.679,75.4621 9.217,-1.4092 c 0.212,-0.0441 0.401,-0.1658 0.528,-0.3411 0.127,-0.1754 0.184,-0.3918 0.16,-0.6071 -0.044,-0.212 -0.166,-0.3999 -0.341,-0.527 -0.176,-0.1271 -0.393,-0.1842 -0.608,-0.1602 l -9.209,1.4266 c -0.214,0.0423 -0.404,0.1631 -0.533,0.3387 -0.129,0.1755 -0.187,0.393 -0.164,0.6095 0.048,0.2088 0.172,0.3926 0.347,0.5162 0.175,0.1236 0.39,0.1783 0.603,0.1536 z"
         fill="#ffffff"
         stroke="#1a2e35"
         stroke-miterlimit="10"
         stroke-linecap="round"
         id="path24" />
      <path
         d="m 212.036,77.7325 9.208,-1.4353 c 0.214,-0.0423 0.405,-0.1631 0.534,-0.3386 0.129,-0.1756 0.187,-0.3931 0.163,-0.6096 -0.044,-0.212 -0.166,-0.3999 -0.341,-0.527 -0.176,-0.1271 -0.393,-0.1842 -0.608,-0.1602 l -9.208,1.4266 c -0.214,0.0423 -0.405,0.1631 -0.534,0.3387 -0.129,0.1755 -0.187,0.393 -0.163,0.6095 0.042,0.2136 0.163,0.4036 0.339,0.5325 0.176,0.1288 0.393,0.1871 0.61,0.1634 z"
         fill="#ffffff"
         stroke="#1a2e35"
         stroke-miterlimit="10"
         stroke-linecap="round"
         id="path26" />
      <path
         d="m 209.841,86.4574 c 0.093,0.6001 0.363,1.159 0.774,1.6067 0.411,0.4476 0.945,0.7639 1.535,0.9091 0.591,0.1453 1.211,0.1129 1.784,-0.093 0.572,-0.2059 1.07,-0.5761 1.432,-1.0641 0.362,-0.488 0.572,-1.0719 0.602,-1.6784 0.031,-0.6065 -0.119,-1.2085 -0.43,-1.7302 -0.312,-0.5218 -0.77,-0.94 -1.319,-1.2021 -0.549,-0.2621 -1.163,-0.3564 -1.765,-0.271 -0.404,0.0574 -0.793,0.1944 -1.144,0.4031 -0.351,0.2087 -0.657,0.485 -0.9,0.8128 -0.243,0.3277 -0.419,0.7005 -0.517,1.0965 -0.097,0.3961 -0.115,0.8076 -0.052,1.2106 z"
         fill="#1a2e35"
         stroke="#1a2e35"
         stroke-miterlimit="10"
         stroke-linecap="round"
         id="path28" />
      <path
         d="m 213.247,85.5005 9.208,-1.4353 c 0.214,-0.0422 0.405,-0.1631 0.534,-0.3386 0.129,-0.1756 0.187,-0.3931 0.163,-0.6095 -0.044,-0.2121 -0.166,-0.4 -0.341,-0.5271 -0.176,-0.1271 -0.393,-0.1842 -0.608,-0.1602 l -9.217,1.4266 c -0.213,0.0442 -0.401,0.1658 -0.528,0.3412 -0.127,0.1753 -0.185,0.3918 -0.161,0.607 0.043,0.2136 0.164,0.4037 0.34,0.5325 0.175,0.1289 0.393,0.1872 0.61,0.1634 z"
         fill="#ffffff"
         stroke="#1a2e35"
         stroke-miterlimit="10"
         stroke-linecap="round"
         id="path30" />
      <path
         d="m 213.596,87.7622 9.217,-1.4266 c 0.108,-0.0158 0.212,-0.0531 0.305,-0.1096 0.094,-0.0566 0.175,-0.1312 0.239,-0.2196 0.064,-0.0883 0.11,-0.1886 0.135,-0.2949 0.024,-0.1063 0.027,-0.2165 0.009,-0.3241 -0.042,-0.2119 -0.162,-0.4006 -0.336,-0.5293 -0.174,-0.1286 -0.39,-0.188 -0.605,-0.1666 l -9.235,1.4353 c -0.108,0.0159 -0.212,0.0531 -0.305,0.1097 -0.094,0.0565 -0.175,0.1312 -0.239,0.2195 -0.064,0.0884 -0.11,0.1887 -0.134,0.295 -0.025,0.1063 -0.028,0.2165 -0.01,0.324 0.016,0.1089 0.054,0.2134 0.111,0.3074 0.057,0.094 0.133,0.1755 0.222,0.2397 0.089,0.0642 0.191,0.1096 0.298,0.1337 0.108,0.0241 0.219,0.0263 0.328,0.0064 z"
         fill="#ffffff"
         stroke="#1a2e35"
         stroke-miterlimit="10"
         stroke-linecap="round"
         id="path32" />
      <path
         d="m 211.444,96.4871 c 0.085,0.6034 0.348,1.1678 0.755,1.6219 0.407,0.4541 0.94,0.7774 1.531,0.929 0.591,0.1516 1.214,0.1247 1.79,-0.0773 0.575,-0.202 1.078,-0.5701 1.444,-1.0576 0.367,-0.4875 0.58,-1.0725 0.613,-1.681 0.033,-0.6085 -0.116,-1.2131 -0.427,-1.7372 -0.311,-0.5242 -0.771,-0.9443 -1.322,-1.2073 -0.55,-0.263 -1.167,-0.3569 -1.771,-0.27 -0.808,0.1163 -1.537,0.548 -2.027,1.2003 -0.49,0.6522 -0.701,1.4719 -0.586,2.2792 z"
         fill="#1a2e35"
         stroke="#1a2e35"
         stroke-miterlimit="10"
         stroke-linecap="round"
         id="path34" />
      <path
         d="m 214.806,95.5303 9.218,-1.4267 c 0.212,-0.0441 0.4,-0.1657 0.527,-0.3411 0.128,-0.1753 0.185,-0.3918 0.161,-0.607 -0.015,-0.1077 -0.051,-0.2112 -0.107,-0.3045 -0.056,-0.0933 -0.13,-0.1744 -0.218,-0.2385 -0.087,-0.0642 -0.187,-0.11 -0.293,-0.1348 -0.106,-0.0247 -0.216,-0.0279 -0.323,-0.0094 l -9.217,1.4266 c -0.108,0.0158 -0.212,0.0531 -0.306,0.1096 -0.093,0.0565 -0.174,0.1312 -0.238,0.2196 -0.065,0.0883 -0.11,0.1886 -0.135,0.2949 -0.025,0.1063 -0.028,0.2165 -0.009,0.324 0.014,0.1077 0.051,0.2112 0.106,0.3045 0.056,0.0933 0.13,0.1744 0.218,0.2386 0.088,0.0641 0.188,0.1099 0.294,0.1347 0.105,0.0247 0.215,0.028 0.322,0.0095 z"
         fill="#ffffff"
         stroke="#1a2e35"
         stroke-miterlimit="10"
         stroke-linecap="round"
         id="path36" />
      <path
         d="m 215.164,97.8006 9.208,-1.4265 c 0.214,-0.0423 0.404,-0.1631 0.533,-0.3387 0.129,-0.1755 0.188,-0.393 0.164,-0.6095 -0.042,-0.2136 -0.163,-0.4036 -0.339,-0.5325 -0.176,-0.1288 -0.394,-0.1872 -0.611,-0.1634 l -9.208,1.4353 c -0.214,0.0423 -0.404,0.1631 -0.533,0.3386 -0.129,0.1756 -0.188,0.3931 -0.164,0.6096 0.044,0.212 0.166,0.3999 0.342,0.527 0.175,0.1271 0.392,0.1842 0.608,0.1601 z"
         fill="#ffffff"
         stroke="#1a2e35"
         stroke-miterlimit="10"
         stroke-linecap="round"
         id="path38" />
      <path
         d="m 213.003,106.526 c 0.086,0.603 0.349,1.167 0.756,1.621 0.407,0.455 0.939,0.778 1.53,0.929 0.592,0.152 1.214,0.125 1.79,-0.077 0.576,-0.202 1.079,-0.57 1.445,-1.057 0.366,-0.488 0.579,-1.073 0.612,-1.681 0.033,-0.609 -0.115,-1.214 -0.427,-1.738 -0.311,-0.524 -0.771,-0.944 -1.321,-1.207 -0.551,-0.263 -1.167,-0.357 -1.771,-0.27 -0.401,0.057 -0.787,0.191 -1.135,0.397 -0.348,0.206 -0.653,0.478 -0.895,0.801 -0.243,0.323 -0.42,0.691 -0.52,1.083 -0.1,0.391 -0.122,0.799 -0.064,1.199 z"
         fill="#1a2e35"
         stroke="#1a2e35"
         stroke-miterlimit="10"
         stroke-linecap="round"
         id="path40" />
      <path
         d="m 216.375,105.569 9.208,-1.427 c 0.214,-0.042 0.404,-0.163 0.533,-0.339 0.129,-0.175 0.188,-0.393 0.164,-0.609 -0.042,-0.214 -0.163,-0.404 -0.339,-0.533 -0.176,-0.128 -0.394,-0.187 -0.611,-0.163 l -9.208,1.435 c -0.214,0.043 -0.404,0.163 -0.533,0.339 -0.129,0.176 -0.188,0.393 -0.164,0.609 0.044,0.212 0.166,0.4 0.342,0.528 0.175,0.127 0.392,0.184 0.608,0.16 z"
         fill="#ffffff"
         stroke="#1a2e35"
         stroke-miterlimit="10"
         stroke-linecap="round"
         id="path42" />
      <path
         d="m 216.732,107.839 9.208,-1.435 c 0.212,-0.042 0.401,-0.162 0.53,-0.336 0.129,-0.173 0.189,-0.389 0.167,-0.604 -0.042,-0.213 -0.163,-0.403 -0.339,-0.532 -0.176,-0.129 -0.394,-0.187 -0.61,-0.164 l -9.218,1.47 c -0.107,0.016 -0.21,0.053 -0.303,0.109 -0.093,0.056 -0.173,0.13 -0.237,0.218 -0.064,0.087 -0.11,0.186 -0.136,0.292 -0.025,0.105 -0.029,0.214 -0.012,0.321 0.05,0.207 0.174,0.389 0.349,0.511 0.175,0.122 0.389,0.175 0.601,0.15 z"
         fill="#ffffff"
         stroke="#1a2e35"
         stroke-miterlimit="10"
         stroke-linecap="round"
         id="path44" />
      <path
         d="m 214.571,116.564 c 0.087,0.605 0.353,1.17 0.762,1.624 0.41,0.453 0.945,0.775 1.539,0.924 0.593,0.149 1.217,0.119 1.793,-0.088 0.576,-0.206 1.078,-0.579 1.441,-1.07 0.363,-0.492 0.571,-1.08 0.599,-1.691 0.027,-0.61 -0.128,-1.215 -0.446,-1.737 -0.318,-0.522 -0.784,-0.938 -1.339,-1.194 -0.555,-0.257 -1.174,-0.343 -1.779,-0.248 -0.8,0.127 -1.518,0.563 -1.999,1.214 -0.481,0.651 -0.686,1.465 -0.571,2.266 z"
         fill="#1a2e35"
         stroke="#1a2e35"
         stroke-miterlimit="10"
         stroke-linecap="round"
         id="path46" />
      <path
         d="m 217.934,115.607 9.217,-1.435 c 0.212,-0.042 0.401,-0.162 0.53,-0.336 0.129,-0.173 0.189,-0.389 0.167,-0.604 -0.042,-0.213 -0.163,-0.403 -0.339,-0.532 -0.176,-0.129 -0.394,-0.187 -0.611,-0.164 l -9.217,1.436 c -0.212,0.044 -0.4,0.166 -0.527,0.341 -0.128,0.175 -0.185,0.392 -0.161,0.607 0.016,0.107 0.053,0.21 0.109,0.303 0.056,0.092 0.13,0.173 0.218,0.237 0.087,0.064 0.187,0.11 0.292,0.135 0.105,0.025 0.215,0.029 0.322,0.012 z"
         fill="#ffffff"
         stroke="#1a2e35"
         stroke-miterlimit="10"
         stroke-linecap="round"
         id="path48" />
      <path
         d="m 218.291,117.877 9.217,-1.435 c 0.213,-0.044 0.401,-0.166 0.528,-0.341 0.127,-0.175 0.185,-0.392 0.161,-0.607 -0.045,-0.212 -0.167,-0.4 -0.342,-0.527 -0.176,-0.127 -0.393,-0.184 -0.608,-0.16 l -9.208,1.426 c -0.214,0.043 -0.405,0.163 -0.534,0.339 -0.129,0.176 -0.187,0.393 -0.163,0.61 0.042,0.213 0.163,0.403 0.339,0.532 0.176,0.129 0.393,0.187 0.61,0.163 z"
         fill="#ffffff"
         stroke="#1a2e35"
         stroke-miterlimit="10"
         stroke-linecap="round"
         id="path50" />
      <path
         d="m 216.139,126.602 c 0.087,0.605 0.353,1.17 0.762,1.624 0.41,0.454 0.946,0.776 1.539,0.925 0.593,0.149 1.218,0.118 1.794,-0.088 0.575,-0.207 1.077,-0.579 1.44,-1.071 0.363,-0.492 0.572,-1.08 0.599,-1.69 0.027,-0.611 -0.128,-1.215 -0.446,-1.737 -0.318,-0.522 -0.784,-0.938 -1.339,-1.195 -0.555,-0.257 -1.174,-0.343 -1.779,-0.247 -0.8,0.126 -1.518,0.562 -1.999,1.214 -0.481,0.651 -0.686,1.465 -0.571,2.265 z"
         fill="#1a2e35"
         stroke="#1a2e35"
         stroke-miterlimit="10"
         stroke-linecap="round"
         id="path52" />
      <path
         d="m 219.502,125.646 9.217,-1.436 c 0.213,-0.044 0.401,-0.166 0.528,-0.341 0.127,-0.175 0.184,-0.392 0.16,-0.607 -0.044,-0.212 -0.166,-0.4 -0.341,-0.527 -0.176,-0.127 -0.393,-0.184 -0.608,-0.16 l -9.209,1.435 c -0.212,0.042 -0.401,0.162 -0.53,0.336 -0.128,0.173 -0.188,0.389 -0.166,0.604 0.042,0.213 0.163,0.403 0.339,0.532 0.176,0.129 0.393,0.187 0.61,0.164 z"
         fill="#ffffff"
         stroke="#1a2e35"
         stroke-miterlimit="10"
         stroke-linecap="round"
         id="path54" />
      <path
         d="m 219.859,127.916 9.209,-1.435 c 0.214,-0.043 0.404,-0.164 0.533,-0.339 0.129,-0.176 0.187,-0.393 0.164,-0.61 -0.045,-0.212 -0.166,-0.4 -0.342,-0.527 -0.176,-0.127 -0.392,-0.184 -0.608,-0.16 l -9.217,1.401 c -0.212,0.044 -0.401,0.165 -0.528,0.341 -0.127,0.175 -0.184,0.392 -0.16,0.607 0.036,0.218 0.155,0.415 0.331,0.549 0.177,0.134 0.398,0.196 0.618,0.173 z"
         fill="#ffffff"
         stroke="#1a2e35"
         stroke-miterlimit="10"
         stroke-linecap="round"
         id="path56" />
      <path
         d="m 217.681,136.684 c 0.094,0.6 0.363,1.159 0.774,1.607 0.411,0.448 0.946,0.764 1.536,0.909 0.591,0.145 1.211,0.113 1.783,-0.093 0.572,-0.206 1.071,-0.576 1.433,-1.064 0.362,-0.488 0.571,-1.072 0.602,-1.678 0.03,-0.607 -0.12,-1.209 -0.431,-1.731 -0.311,-0.521 -0.77,-0.94 -1.318,-1.202 -0.549,-0.262 -1.163,-0.356 -1.765,-0.271 -0.405,0.058 -0.794,0.195 -1.145,0.403 -0.35,0.209 -0.656,0.485 -0.9,0.813 -0.243,0.328 -0.418,0.701 -0.516,1.097 -0.098,0.396 -0.116,0.807 -0.053,1.21 z"
         fill="#1a2e35"
         stroke="#1a2e35"
         stroke-miterlimit="10"
         stroke-linecap="round"
         id="path58" />
      <path
         d="m 221.07,135.684 9.209,-1.435 c 0.214,-0.043 0.404,-0.163 0.533,-0.339 0.129,-0.176 0.187,-0.393 0.164,-0.61 -0.045,-0.212 -0.167,-0.399 -0.342,-0.527 -0.176,-0.127 -0.392,-0.184 -0.608,-0.16 l -9.217,1.462 c -0.212,0.044 -0.401,0.165 -0.528,0.341 -0.127,0.175 -0.184,0.392 -0.16,0.607 0.049,0.207 0.174,0.389 0.349,0.511 0.175,0.121 0.388,0.175 0.6,0.15 z"
         fill="#ffffff"
         stroke="#1a2e35"
         stroke-miterlimit="10"
         stroke-linecap="round"
         id="path60" />
      <path
         d="m 221.419,137.946 9.217,-1.427 c 0.212,-0.044 0.4,-0.166 0.528,-0.341 0.127,-0.175 0.184,-0.392 0.16,-0.607 -0.016,-0.108 -0.053,-0.212 -0.11,-0.305 -0.056,-0.094 -0.131,-0.175 -0.22,-0.239 -0.088,-0.064 -0.189,-0.109 -0.295,-0.134 -0.107,-0.025 -0.217,-0.028 -0.325,-0.009 l -9.208,1.426 c -0.214,0.043 -0.404,0.163 -0.533,0.339 -0.129,0.175 -0.188,0.393 -0.164,0.609 0.016,0.108 0.053,0.212 0.11,0.305 0.057,0.094 0.131,0.175 0.22,0.239 0.088,0.064 0.189,0.11 0.295,0.134 0.107,0.025 0.217,0.028 0.325,0.01 z"
         fill="#ffffff"
         stroke="#1a2e35"
         stroke-miterlimit="10"
         stroke-linecap="round"
         id="path62" />
      <path
         d="m 219.267,146.671 c 0.087,0.604 0.352,1.169 0.762,1.623 0.409,0.454 0.945,0.776 1.538,0.925 0.594,0.149 1.218,0.118 1.794,-0.088 0.576,-0.206 1.077,-0.579 1.44,-1.071 0.364,-0.491 0.572,-1.08 0.599,-1.69 0.028,-0.611 -0.127,-1.215 -0.445,-1.737 -0.318,-0.522 -0.784,-0.938 -1.339,-1.195 -0.556,-0.257 -1.175,-0.343 -1.779,-0.247 -0.8,0.127 -1.519,0.563 -1.999,1.214 -0.481,0.651 -0.686,1.465 -0.571,2.266 z"
         fill="#1a2e35"
         stroke="#1a2e35"
         stroke-miterlimit="10"
         stroke-linecap="round"
         id="path64" />
      <path
         d="m 222.63,145.722 9.217,-1.435 c 0.212,-0.044 0.4,-0.166 0.528,-0.341 0.127,-0.175 0.184,-0.392 0.16,-0.607 -0.044,-0.212 -0.166,-0.4 -0.342,-0.527 -0.175,-0.127 -0.392,-0.184 -0.608,-0.16 l -9.208,1.426 c -0.214,0.043 -0.404,0.163 -0.533,0.339 -0.129,0.175 -0.188,0.393 -0.164,0.609 0.042,0.214 0.163,0.404 0.339,0.533 0.176,0.129 0.394,0.187 0.611,0.163 z"
         fill="#ffffff"
         stroke="#1a2e35"
         stroke-miterlimit="10"
         stroke-linecap="round"
         id="path66" />
      <path
         d="m 222.987,147.993 9.208,-1.427 c 0.214,-0.042 0.404,-0.163 0.533,-0.338 0.13,-0.176 0.188,-0.394 0.164,-0.61 -0.042,-0.214 -0.163,-0.404 -0.339,-0.532 -0.176,-0.129 -0.394,-0.188 -0.61,-0.164 l -9.218,1.435 c -0.212,0.045 -0.4,0.166 -0.527,0.342 -0.128,0.175 -0.185,0.391 -0.161,0.607 0.044,0.212 0.166,0.4 0.342,0.527 0.175,0.127 0.392,0.184 0.608,0.16 z"
         fill="#ffffff"
         stroke="#1a2e35"
         stroke-miterlimit="10"
         stroke-linecap="round"
         id="path68" />
      <path
         d="m 220.826,156.692 c 0.086,0.603 0.349,1.167 0.756,1.621 0.407,0.455 0.939,0.778 1.531,0.929 0.591,0.152 1.214,0.125 1.789,-0.077 0.576,-0.202 1.079,-0.57 1.445,-1.057 0.366,-0.488 0.579,-1.073 0.612,-1.681 0.033,-0.609 -0.115,-1.214 -0.426,-1.738 -0.312,-0.524 -0.772,-0.944 -1.322,-1.207 -0.551,-0.263 -1.167,-0.357 -1.771,-0.27 -0.808,0.116 -1.537,0.548 -2.027,1.2 -0.49,0.653 -0.701,1.472 -0.587,2.28 z"
         fill="#1a2e35"
         stroke="#1a2e35"
         stroke-miterlimit="10"
         stroke-linecap="round"
         id="path70" />
      <path
         d="m 224.198,155.752 9.208,-1.427 c 0.214,-0.042 0.404,-0.163 0.533,-0.338 0.129,-0.176 0.188,-0.393 0.164,-0.61 -0.042,-0.213 -0.163,-0.403 -0.339,-0.532 -0.176,-0.129 -0.394,-0.187 -0.611,-0.164 l -9.217,1.401 c -0.212,0.044 -0.4,0.166 -0.527,0.341 -0.128,0.175 -0.185,0.392 -0.161,0.607 0.037,0.219 0.155,0.415 0.332,0.549 0.176,0.134 0.397,0.196 0.618,0.173 z"
         fill="#ffffff"
         stroke="#1a2e35"
         stroke-miterlimit="10"
         stroke-linecap="round"
         id="path72" />
      <path
         d="m 224.546,158.022 9.217,-1.426 c 0.213,-0.044 0.401,-0.166 0.528,-0.341 0.127,-0.176 0.185,-0.392 0.161,-0.607 -0.043,-0.212 -0.162,-0.401 -0.336,-0.53 -0.174,-0.128 -0.39,-0.188 -0.605,-0.166 l -9.217,1.435 c -0.214,0.042 -0.405,0.163 -0.534,0.339 -0.129,0.175 -0.187,0.393 -0.163,0.609 0.044,0.212 0.166,0.4 0.341,0.527 0.176,0.127 0.393,0.185 0.608,0.16 z"
         fill="#ffffff"
         stroke="#1a2e35"
         stroke-miterlimit="10"
         stroke-linecap="round"
         id="path74" />
      <path
         d="m 222.394,166.747 c 0.088,0.605 0.353,1.17 0.762,1.624 0.41,0.454 0.946,0.776 1.539,0.925 0.593,0.149 1.218,0.118 1.794,-0.088 0.575,-0.207 1.077,-0.579 1.44,-1.071 0.363,-0.492 0.572,-1.08 0.599,-1.69 0.027,-0.611 -0.128,-1.215 -0.446,-1.737 -0.318,-0.522 -0.784,-0.938 -1.339,-1.195 -0.555,-0.257 -1.174,-0.343 -1.779,-0.247 -0.8,0.126 -1.518,0.562 -1.999,1.214 -0.481,0.651 -0.686,1.465 -0.571,2.265 z"
         fill="#1a2e35"
         stroke="#1a2e35"
         stroke-miterlimit="10"
         stroke-linecap="round"
         id="path76" />
      <path
         d="m 225.757,165.79 9.217,-1.426 c 0.213,-0.044 0.401,-0.166 0.528,-0.341 0.127,-0.176 0.185,-0.392 0.161,-0.607 -0.043,-0.212 -0.162,-0.401 -0.336,-0.53 -0.174,-0.128 -0.39,-0.188 -0.605,-0.166 l -9.2,1.435 c -0.214,0.042 -0.404,0.163 -0.533,0.339 -0.129,0.175 -0.188,0.393 -0.164,0.609 0.044,0.209 0.163,0.394 0.335,0.521 0.172,0.127 0.384,0.186 0.597,0.166 z"
         fill="#ffffff"
         stroke="#1a2e35"
         stroke-miterlimit="10"
         stroke-linecap="round"
         id="path78" />
      <path
         d="m 226.114,168.061 9.209,-1.435 c 0.212,-0.043 0.401,-0.162 0.53,-0.336 0.129,-0.173 0.188,-0.389 0.167,-0.604 -0.043,-0.214 -0.164,-0.403 -0.339,-0.532 -0.176,-0.129 -0.394,-0.188 -0.611,-0.164 l -9.208,1.436 c -0.213,0.042 -0.402,0.161 -0.53,0.335 -0.129,0.174 -0.189,0.389 -0.167,0.604 0.042,0.214 0.163,0.404 0.339,0.532 0.176,0.129 0.394,0.188 0.61,0.164 z"
         fill="#ffffff"
         stroke="#1a2e35"
         stroke-miterlimit="10"
         stroke-linecap="round"
         id="path80" />
      <path
         d="m 223.954,176.786 c 0.085,0.603 0.348,1.168 0.755,1.622 0.407,0.454 0.94,0.777 1.531,0.929 0.591,0.151 1.214,0.124 1.79,-0.078 0.576,-0.202 1.078,-0.57 1.445,-1.057 0.366,-0.488 0.579,-1.073 0.612,-1.681 0.033,-0.609 -0.116,-1.213 -0.427,-1.737 -0.311,-0.525 -0.771,-0.945 -1.322,-1.208 -0.55,-0.263 -1.167,-0.357 -1.771,-0.27 -0.808,0.117 -1.537,0.548 -2.027,1.201 -0.49,0.652 -0.701,1.471 -0.586,2.279 z"
         fill="#1a2e35"
         stroke="#1a2e35"
         stroke-miterlimit="10"
         stroke-linecap="round"
         id="path82" />
      <path
         d="m 227.325,175.829 9.209,-1.435 c 0.212,-0.043 0.401,-0.162 0.53,-0.336 0.129,-0.173 0.188,-0.389 0.167,-0.604 -0.043,-0.213 -0.164,-0.403 -0.34,-0.532 -0.175,-0.129 -0.393,-0.187 -0.61,-0.164 l -9.208,1.436 c -0.213,0.042 -0.402,0.161 -0.53,0.335 -0.129,0.174 -0.189,0.389 -0.167,0.604 0.042,0.214 0.163,0.404 0.339,0.532 0.176,0.129 0.394,0.188 0.61,0.164 z"
         fill="#ffffff"
         stroke="#1a2e35"
         stroke-miterlimit="10"
         stroke-linecap="round"
         id="path84" />
      <path
         d="m 227.674,178.099 9.217,-1.4 c 0.108,-0.016 0.212,-0.053 0.305,-0.11 0.094,-0.056 0.175,-0.131 0.239,-0.219 0.064,-0.089 0.11,-0.189 0.135,-0.295 0.025,-0.107 0.028,-0.217 0.009,-0.324 -0.016,-0.107 -0.053,-0.21 -0.109,-0.303 -0.056,-0.093 -0.13,-0.173 -0.217,-0.237 -0.088,-0.064 -0.187,-0.11 -0.293,-0.136 -0.105,-0.025 -0.215,-0.029 -0.322,-0.012 l -9.217,1.427 c -0.212,0.044 -0.4,0.166 -0.528,0.341 -0.127,0.176 -0.184,0.392 -0.16,0.607 0.05,0.206 0.172,0.386 0.346,0.508 0.173,0.122 0.384,0.176 0.595,0.153 z"
         fill="#ffffff"
         stroke="#1a2e35"
         stroke-miterlimit="10"
         stroke-linecap="round"
         id="path86" />
      <path
         d="m 225.522,186.824 c 0.095,0.602 0.367,1.161 0.78,1.609 0.414,0.447 0.951,0.762 1.544,0.904 0.593,0.143 1.214,0.107 1.787,-0.103 0.572,-0.21 1.069,-0.585 1.428,-1.077 0.359,-0.492 0.564,-1.08 0.589,-1.688 0.024,-0.608 -0.132,-1.21 -0.45,-1.73 -0.317,-0.52 -0.782,-0.934 -1.336,-1.189 -0.553,-0.256 -1.17,-0.343 -1.772,-0.249 -0.401,0.063 -0.785,0.203 -1.131,0.414 -0.346,0.211 -0.647,0.488 -0.886,0.816 -0.238,0.327 -0.41,0.698 -0.505,1.091 -0.095,0.394 -0.111,0.802 -0.048,1.202 z"
         fill="#1a2e35"
         stroke="#1a2e35"
         stroke-miterlimit="10"
         stroke-linecap="round"
         id="path88" />
      <path
         d="m 228.885,185.867 9.217,-1.435 c 0.108,-0.016 0.212,-0.053 0.305,-0.11 0.094,-0.056 0.175,-0.131 0.239,-0.219 0.064,-0.089 0.11,-0.189 0.135,-0.295 0.024,-0.106 0.028,-0.217 0.009,-0.324 -0.016,-0.107 -0.053,-0.21 -0.109,-0.303 -0.056,-0.093 -0.13,-0.173 -0.218,-0.237 -0.087,-0.064 -0.186,-0.11 -0.292,-0.135 -0.105,-0.026 -0.215,-0.03 -0.322,-0.012 l -9.217,1.426 c -0.212,0.044 -0.4,0.166 -0.528,0.341 -0.127,0.176 -0.184,0.392 -0.16,0.607 0.042,0.212 0.162,0.401 0.336,0.53 0.174,0.128 0.389,0.188 0.605,0.166 z"
         fill="#ffffff"
         stroke="#1a2e35"
         stroke-miterlimit="10"
         stroke-linecap="round"
         id="path90" />
      <path
         d="m 229.242,188.138 9.217,-1.436 c 0.212,-0.044 0.401,-0.165 0.528,-0.341 0.127,-0.175 0.184,-0.392 0.16,-0.607 -0.044,-0.212 -0.166,-0.4 -0.341,-0.527 -0.176,-0.127 -0.393,-0.184 -0.608,-0.16 l -9.191,1.427 c -0.214,0.042 -0.405,0.163 -0.534,0.338 -0.129,0.176 -0.187,0.393 -0.163,0.61 0.042,0.21 0.16,0.398 0.332,0.526 0.172,0.128 0.386,0.189 0.6,0.17 z"
         fill="#ffffff"
         stroke="#1a2e35"
         stroke-miterlimit="10"
         stroke-linecap="round"
         id="path92" />
      <path
         d="m 227.081,196.863 c 0.094,0.6 0.363,1.159 0.774,1.606 0.411,0.448 0.946,0.764 1.536,0.909 0.591,0.146 1.211,0.113 1.783,-0.093 0.572,-0.205 1.071,-0.576 1.433,-1.064 0.362,-0.488 0.571,-1.072 0.602,-1.678 0.03,-0.607 -0.12,-1.209 -0.431,-1.73 -0.311,-0.522 -0.77,-0.94 -1.318,-1.202 -0.549,-0.262 -1.163,-0.357 -1.765,-0.271 -0.404,0.058 -0.792,0.196 -1.143,0.405 -0.35,0.209 -0.656,0.485 -0.899,0.813 -0.243,0.327 -0.418,0.699 -0.516,1.095 -0.099,0.396 -0.117,0.807 -0.056,1.21 z"
         fill="#1a2e35"
         stroke="#1a2e35"
         stroke-miterlimit="10"
         stroke-linecap="round"
         id="path94" />
      <path
         d="m 230.453,195.906 9.208,-1.436 c 0.214,-0.042 0.404,-0.163 0.533,-0.338 0.13,-0.176 0.188,-0.393 0.164,-0.61 -0.044,-0.212 -0.166,-0.4 -0.342,-0.527 -0.175,-0.127 -0.392,-0.184 -0.607,-0.16 l -9.209,1.427 c -0.214,0.042 -0.404,0.163 -0.533,0.338 -0.129,0.176 -0.188,0.393 -0.164,0.61 0.043,0.213 0.164,0.403 0.339,0.532 0.176,0.129 0.394,0.187 0.611,0.164 z"
         fill="#ffffff"
         stroke="#1a2e35"
         stroke-miterlimit="10"
         stroke-linecap="round"
         id="path96" />
      <path
         d="m 230.81,198.167 9.208,-1.461 c 0.214,-0.042 0.405,-0.163 0.534,-0.339 0.129,-0.175 0.187,-0.393 0.163,-0.609 -0.042,-0.214 -0.163,-0.404 -0.339,-0.533 -0.176,-0.128 -0.393,-0.187 -0.61,-0.163 l -9.217,1.435 c -0.213,0.044 -0.401,0.166 -0.528,0.341 -0.127,0.176 -0.185,0.392 -0.161,0.607 0.037,0.219 0.156,0.415 0.332,0.549 0.176,0.134 0.397,0.196 0.618,0.173 z"
         fill="#ffffff"
         stroke="#1a2e35"
         stroke-miterlimit="10"
         stroke-linecap="round"
         id="path98" />
      <path
         d="m 228.65,206.892 c 0.085,0.604 0.348,1.168 0.755,1.622 0.407,0.454 0.94,0.778 1.531,0.929 0.591,0.152 1.214,0.125 1.789,-0.077 0.576,-0.202 1.079,-0.57 1.445,-1.058 0.366,-0.487 0.579,-1.072 0.612,-1.681 0.033,-0.608 -0.115,-1.213 -0.426,-1.737 -0.312,-0.524 -0.772,-0.944 -1.322,-1.207 -0.551,-0.263 -1.167,-0.357 -1.771,-0.27 -0.808,0.116 -1.537,0.548 -2.027,1.2 -0.49,0.652 -0.701,1.472 -0.586,2.279 z"
         fill="#1a2e35"
         stroke="#1a2e35"
         stroke-miterlimit="10"
         stroke-linecap="round"
         id="path100" />
      <path
         d="m 232.021,205.935 9.182,-1.4 c 0.214,-0.042 0.404,-0.163 0.533,-0.339 0.129,-0.175 0.188,-0.393 0.164,-0.609 -0.044,-0.212 -0.166,-0.4 -0.342,-0.527 -0.175,-0.127 -0.392,-0.184 -0.607,-0.16 l -9.218,1.426 c -0.212,0.044 -0.4,0.166 -0.527,0.341 -0.128,0.176 -0.185,0.392 -0.161,0.607 0.019,0.109 0.059,0.212 0.119,0.304 0.06,0.093 0.137,0.172 0.228,0.234 0.091,0.062 0.194,0.104 0.302,0.126 0.108,0.021 0.219,0.02 0.327,-0.003 z"
         fill="#ffffff"
         stroke="#1a2e35"
         stroke-miterlimit="10"
         stroke-linecap="round"
         id="path102" />
      <path
         d="m 232.369,208.206 9.218,-1.427 c 0.212,-0.044 0.4,-0.166 0.527,-0.341 0.128,-0.175 0.185,-0.392 0.161,-0.607 -0.043,-0.214 -0.164,-0.404 -0.339,-0.532 -0.176,-0.129 -0.394,-0.188 -0.611,-0.164 l -9.208,1.436 c -0.214,0.042 -0.404,0.163 -0.533,0.338 -0.129,0.176 -0.188,0.393 -0.164,0.61 0.044,0.212 0.166,0.4 0.342,0.527 0.175,0.127 0.392,0.184 0.607,0.16 z"
         fill="#ffffff"
         stroke="#1a2e35"
         stroke-miterlimit="10"
         stroke-linecap="round"
         id="path104" />
      <path
         d="m 230.218,216.931 c 0.087,0.605 0.352,1.17 0.762,1.623 0.409,0.454 0.945,0.776 1.538,0.925 0.594,0.149 1.218,0.118 1.794,-0.088 0.576,-0.206 1.077,-0.579 1.44,-1.071 0.363,-0.491 0.572,-1.08 0.599,-1.69 0.027,-0.61 -0.128,-1.215 -0.446,-1.737 -0.317,-0.522 -0.784,-0.938 -1.339,-1.195 -0.555,-0.256 -1.174,-0.342 -1.778,-0.247 -0.802,0.125 -1.521,0.56 -2.003,1.212 -0.481,0.652 -0.685,1.467 -0.567,2.268 z"
         fill="#1a2e35"
         stroke="#1a2e35"
         stroke-miterlimit="10"
         stroke-linecap="round"
         id="path106" />
      <path
         d="m 233.58,215.974 9.217,-1.427 c 0.213,-0.044 0.401,-0.165 0.528,-0.341 0.128,-0.175 0.185,-0.392 0.161,-0.607 -0.043,-0.213 -0.164,-0.403 -0.339,-0.532 -0.176,-0.129 -0.394,-0.187 -0.611,-0.164 l -9.173,1.436 c -0.214,0.042 -0.405,0.163 -0.534,0.338 -0.129,0.176 -0.187,0.393 -0.163,0.61 0.043,0.205 0.16,0.388 0.328,0.514 0.168,0.127 0.377,0.188 0.586,0.173 z"
         fill="#ffffff"
         stroke="#1a2e35"
         stroke-miterlimit="10"
         stroke-linecap="round"
         id="path108" />
      <path
         d="m 233.938,218.244 9.208,-1.435 c 0.212,-0.048 0.399,-0.174 0.523,-0.353 0.124,-0.178 0.177,-0.397 0.148,-0.613 -0.043,-0.213 -0.164,-0.403 -0.339,-0.532 -0.176,-0.129 -0.394,-0.187 -0.611,-0.163 l -9.217,1.435 c -0.107,0.016 -0.21,0.053 -0.303,0.109 -0.093,0.056 -0.174,0.13 -0.238,0.217 -0.064,0.087 -0.11,0.187 -0.135,0.292 -0.025,0.105 -0.029,0.214 -0.012,0.321 0.036,0.224 0.159,0.424 0.341,0.559 0.182,0.135 0.41,0.193 0.635,0.163 z"
         fill="#ffffff"
         stroke="#1a2e35"
         stroke-miterlimit="10"
         stroke-linecap="round"
         id="path110" />
      <path
         d="m 231.777,226.969 c 0.087,0.605 0.352,1.17 0.762,1.624 0.41,0.454 0.945,0.776 1.539,0.925 0.593,0.149 1.217,0.118 1.793,-0.088 0.576,-0.207 1.077,-0.579 1.441,-1.071 0.363,-0.492 0.571,-1.08 0.599,-1.691 0.027,-0.61 -0.128,-1.215 -0.446,-1.737 -0.318,-0.522 -0.784,-0.937 -1.339,-1.194 -0.556,-0.257 -1.175,-0.343 -1.779,-0.247 -0.8,0.126 -1.518,0.562 -1.999,1.213 -0.481,0.651 -0.686,1.465 -0.571,2.266 z"
         fill="#1a2e35"
         stroke="#1a2e35"
         stroke-miterlimit="10"
         stroke-linecap="round"
         id="path112" />
      <path
         d="m 235.148,226.012 9.209,-1.47 c 0.212,-0.042 0.401,-0.161 0.53,-0.335 0.129,-0.174 0.188,-0.389 0.167,-0.604 -0.043,-0.214 -0.164,-0.404 -0.339,-0.533 -0.176,-0.129 -0.394,-0.187 -0.611,-0.163 l -9.217,1.435 c -0.212,0.044 -0.4,0.166 -0.528,0.341 -0.127,0.176 -0.184,0.392 -0.16,0.607 0.036,0.219 0.155,0.415 0.331,0.549 0.177,0.134 0.398,0.196 0.618,0.173 z"
         fill="#ffffff"
         stroke="#1a2e35"
         stroke-miterlimit="10"
         stroke-linecap="round"
         id="path114" />
      <path
         d="m 235.497,228.283 9.191,-1.436 c 0.212,-0.044 0.4,-0.165 0.528,-0.341 0.127,-0.175 0.184,-0.392 0.16,-0.607 -0.044,-0.212 -0.166,-0.4 -0.342,-0.527 -0.175,-0.127 -0.392,-0.184 -0.607,-0.16 l -9.209,1.427 c -0.214,0.042 -0.404,0.163 -0.533,0.338 -0.129,0.176 -0.188,0.393 -0.164,0.61 0.043,0.218 0.168,0.413 0.349,0.542 0.182,0.13 0.406,0.185 0.627,0.154 z"
         fill="#ffffff"
         stroke="#1a2e35"
         stroke-miterlimit="10"
         stroke-linecap="round"
         id="path116" />
      <path
         d="m 233.363,237.008 c 0.087,0.604 0.352,1.17 0.761,1.623 0.41,0.454 0.946,0.776 1.539,0.925 0.593,0.149 1.218,0.118 1.794,-0.088 0.576,-0.206 1.077,-0.579 1.44,-1.071 0.363,-0.491 0.572,-1.08 0.599,-1.69 0.027,-0.61 -0.128,-1.215 -0.446,-1.737 -0.317,-0.522 -0.784,-0.938 -1.339,-1.195 -0.555,-0.256 -1.174,-0.343 -1.778,-0.247 -0.801,0.127 -1.519,0.563 -2,1.214 -0.481,0.651 -0.686,1.465 -0.57,2.266 z"
         fill="#1a2e35"
         stroke="#1a2e35"
         stroke-miterlimit="10"
         stroke-linecap="round"
         id="path118" />
      <path
         d="m 236.708,236.051 9.217,-1.436 c 0.212,-0.044 0.401,-0.165 0.528,-0.341 0.127,-0.175 0.184,-0.392 0.16,-0.607 -0.044,-0.212 -0.166,-0.4 -0.341,-0.527 -0.176,-0.127 -0.393,-0.184 -0.608,-0.16 l -9.209,1.435 c -0.212,0.043 -0.401,0.162 -0.53,0.336 -0.129,0.173 -0.188,0.389 -0.167,0.604 0.043,0.213 0.164,0.403 0.339,0.532 0.176,0.129 0.394,0.187 0.611,0.164 z"
         fill="#ffffff"
         stroke="#1a2e35"
         stroke-miterlimit="10"
         stroke-linecap="round"
         id="path120" />
      <path
         d="m 237.065,238.321 9.208,-1.435 c 0.214,-0.042 0.405,-0.163 0.534,-0.339 0.129,-0.175 0.187,-0.393 0.163,-0.609 -0.044,-0.212 -0.166,-0.4 -0.341,-0.527 -0.176,-0.128 -0.393,-0.185 -0.608,-0.161 l -9.174,1.471 c -0.212,0.044 -0.4,0.165 -0.528,0.341 -0.127,0.175 -0.184,0.391 -0.16,0.607 0.051,0.197 0.169,0.371 0.335,0.49 0.165,0.119 0.367,0.177 0.571,0.162 z"
         fill="#ffffff"
         stroke="#1a2e35"
         stroke-miterlimit="10"
         stroke-linecap="round"
         id="path122" />
      <path
         d="m 234.905,247.046 c 0.093,0.6 0.362,1.159 0.773,1.607 0.411,0.447 0.946,0.764 1.536,0.909 0.591,0.145 1.211,0.113 1.783,-0.093 0.572,-0.206 1.071,-0.576 1.433,-1.064 0.362,-0.488 0.571,-1.072 0.602,-1.679 0.03,-0.606 -0.119,-1.208 -0.431,-1.73 -0.311,-0.522 -0.77,-0.94 -1.318,-1.202 -0.549,-0.262 -1.163,-0.356 -1.765,-0.271 -0.404,0.057 -0.793,0.194 -1.144,0.403 -0.351,0.209 -0.657,0.485 -0.9,0.813 -0.244,0.328 -0.419,0.7 -0.517,1.096 -0.097,0.396 -0.115,0.808 -0.052,1.211 z"
         fill="#1a2e35"
         stroke="#1a2e35"
         stroke-miterlimit="10"
         stroke-linecap="round"
         id="path124" />
      <path
         d="m 238.276,246.089 9.208,-1.435 c 0.218,-0.044 0.41,-0.17 0.538,-0.351 0.128,-0.181 0.182,-0.404 0.151,-0.623 -0.045,-0.212 -0.166,-0.4 -0.342,-0.527 -0.176,-0.128 -0.392,-0.185 -0.608,-0.161 l -9.217,1.427 c -0.212,0.044 -0.401,0.166 -0.528,0.341 -0.127,0.175 -0.184,0.392 -0.16,0.607 0.036,0.22 0.156,0.418 0.334,0.552 0.179,0.135 0.402,0.195 0.624,0.17 z"
         fill="#ffffff"
         stroke="#1a2e35"
         stroke-miterlimit="10"
         stroke-linecap="round"
         id="path126" />
      <path
         d="m 238.59,248.351 9.217,-1.427 c 0.212,-0.044 0.4,-0.166 0.528,-0.341 0.127,-0.175 0.184,-0.392 0.16,-0.607 -0.015,-0.108 -0.051,-0.211 -0.107,-0.304 -0.056,-0.094 -0.13,-0.175 -0.217,-0.239 -0.088,-0.064 -0.188,-0.11 -0.294,-0.135 -0.106,-0.024 -0.216,-0.028 -0.323,-0.009 l -9.217,1.426 c -0.108,0.016 -0.212,0.054 -0.305,0.11 -0.094,0.057 -0.175,0.131 -0.239,0.22 -0.064,0.088 -0.11,0.188 -0.135,0.295 -0.025,0.106 -0.028,0.216 -0.009,0.324 0.015,0.107 0.051,0.211 0.107,0.304 0.055,0.093 0.129,0.175 0.217,0.239 0.088,0.064 0.188,0.11 0.294,0.134 0.106,0.025 0.215,0.028 0.323,0.01 z"
         fill="#ffffff"
         stroke="#1a2e35"
         stroke-miterlimit="10"
         stroke-linecap="round"
         id="path128" />
      <path
         d="m 236.473,257.076 c 0.087,0.604 0.352,1.17 0.762,1.623 0.409,0.454 0.945,0.776 1.538,0.925 0.594,0.149 1.218,0.118 1.794,-0.088 0.576,-0.206 1.077,-0.579 1.44,-1.071 0.363,-0.491 0.572,-1.08 0.599,-1.69 0.027,-0.61 -0.128,-1.215 -0.445,-1.737 -0.318,-0.522 -0.784,-0.938 -1.34,-1.195 -0.555,-0.256 -1.174,-0.342 -1.778,-0.247 -0.801,0.127 -1.519,0.563 -2,1.214 -0.481,0.651 -0.686,1.465 -0.57,2.266 z"
         fill="#1a2e35"
         stroke="#1a2e35"
         stroke-miterlimit="10"
         stroke-linecap="round"
         id="path130" />
      <path
         d="m 239.835,256.128 9.209,-1.436 c 0.212,-0.044 0.4,-0.166 0.528,-0.341 0.127,-0.175 0.184,-0.392 0.16,-0.607 -0.016,-0.107 -0.053,-0.21 -0.109,-0.303 -0.056,-0.092 -0.13,-0.173 -0.218,-0.237 -0.087,-0.064 -0.186,-0.11 -0.292,-0.135 -0.105,-0.025 -0.215,-0.029 -0.322,-0.012 l -9.217,1.427 c -0.108,0.015 -0.212,0.053 -0.305,0.109 -0.094,0.057 -0.175,0.131 -0.239,0.22 -0.064,0.088 -0.11,0.188 -0.135,0.295 -0.025,0.106 -0.028,0.216 -0.009,0.324 0.042,0.213 0.163,0.403 0.339,0.532 0.176,0.129 0.394,0.187 0.61,0.164 z"
         fill="#ffffff"
         stroke="#1a2e35"
         stroke-miterlimit="10"
         stroke-linecap="round"
         id="path132" />
      <path
         d="m 240.193,258.389 9.208,-1.426 c 0.214,-0.043 0.404,-0.163 0.533,-0.339 0.129,-0.176 0.188,-0.393 0.164,-0.61 -0.042,-0.213 -0.163,-0.403 -0.339,-0.532 -0.176,-0.129 -0.394,-0.187 -0.611,-0.163 l -9.208,1.409 c -0.214,0.042 -0.404,0.163 -0.533,0.338 -0.129,0.176 -0.188,0.394 -0.164,0.61 0.039,0.217 0.158,0.411 0.334,0.543 0.176,0.133 0.396,0.193 0.616,0.17 z"
         fill="#ffffff"
         stroke="#1a2e35"
         stroke-miterlimit="10"
         stroke-linecap="round"
         id="path134" />
      <path
         d="m 238.032,267.114 c 0.086,0.604 0.349,1.168 0.756,1.622 0.407,0.454 0.939,0.777 1.53,0.929 0.591,0.152 1.214,0.125 1.79,-0.077 0.576,-0.202 1.079,-0.57 1.445,-1.058 0.366,-0.487 0.579,-1.072 0.612,-1.681 0.033,-0.608 -0.115,-1.213 -0.427,-1.737 -0.311,-0.524 -0.771,-0.944 -1.321,-1.207 -0.551,-0.263 -1.167,-0.357 -1.771,-0.27 -0.808,0.118 -1.535,0.55 -2.025,1.202 -0.489,0.652 -0.701,1.47 -0.589,2.277 z"
         fill="#1a2e35"
         stroke="#1a2e35"
         stroke-miterlimit="10"
         stroke-linecap="round"
         id="path136" />
      <path
         d="m 241.404,266.157 9.208,-1.426 c 0.214,-0.043 0.404,-0.163 0.533,-0.339 0.129,-0.175 0.188,-0.393 0.164,-0.609 -0.042,-0.214 -0.163,-0.404 -0.339,-0.533 -0.176,-0.129 -0.394,-0.187 -0.611,-0.163 l -9.208,1.47 c -0.214,0.042 -0.404,0.163 -0.533,0.338 -0.129,0.176 -0.188,0.393 -0.164,0.61 0.052,0.205 0.176,0.385 0.351,0.505 0.175,0.12 0.388,0.173 0.599,0.147 z"
         fill="#ffffff"
         stroke="#1a2e35"
         stroke-miterlimit="10"
         stroke-linecap="round"
         id="path138" />
      <path
         d="m 241.752,268.428 9.217,-1.427 c 0.212,-0.044 0.401,-0.166 0.528,-0.341 0.127,-0.175 0.184,-0.392 0.16,-0.607 -0.042,-0.212 -0.162,-0.401 -0.336,-0.529 -0.174,-0.129 -0.389,-0.188 -0.605,-0.167 l -9.217,1.435 c -0.212,0.044 -0.4,0.166 -0.527,0.341 -0.128,0.176 -0.185,0.392 -0.161,0.607 0.016,0.108 0.053,0.211 0.109,0.303 0.056,0.093 0.13,0.174 0.218,0.237 0.087,0.064 0.187,0.11 0.292,0.136 0.106,0.025 0.215,0.029 0.322,0.012 z"
         fill="#ffffff"
         stroke="#1a2e35"
         stroke-miterlimit="10"
         stroke-linecap="round"
         id="path140" />
      <g
         opacity="0.3"
         id="g252">
        <path
           opacity="0.3"
           d="m 106.31,96.8699 2.291,-0.348"
           stroke="#000000"
           stroke-miterlimit="10"
           stroke-linecap="round"
           id="path142" />
        <path
           opacity="0.3"
           d="m 110.892,96.1653 2.283,-0.3567"
           stroke="#000000"
           stroke-miterlimit="10"
           stroke-linecap="round"
           id="path144" />
        <path
           opacity="0.3"
           d="m 83.9206,103.577 2.2825,-0.357"
           stroke="#000000"
           stroke-miterlimit="10"
           stroke-linecap="round"
           id="path146" />
        <path
           opacity="0.3"
           d="m 88.4943,102.863 2.2912,-0.356"
           stroke="#000000"
           stroke-miterlimit="10"
           stroke-linecap="round"
           id="path148" />
        <path
           opacity="0.3"
           d="m 93.068,102.159 2.2912,-0.357"
           stroke="#000000"
           stroke-miterlimit="10"
           stroke-linecap="round"
           id="path150" />
        <path
           opacity="0.3"
           d="m 97.6504,101.445 2.2825,-0.356"
           stroke="#000000"
           stroke-miterlimit="10"
           stroke-linecap="round"
           id="path152" />
        <path
           opacity="0.3"
           d="m 102.224,100.732 2.291,-0.357"
           stroke="#000000"
           stroke-miterlimit="10"
           stroke-linecap="round"
           id="path154" />
        <path
           opacity="0.3"
           d="m 106.806,100.019 2.283,-0.3568"
           stroke="#000000"
           stroke-miterlimit="10"
           stroke-linecap="round"
           id="path156" />
        <path
           opacity="0.3"
           d="m 111.38,99.3142 2.291,-0.3566"
           stroke="#000000"
           stroke-miterlimit="10"
           stroke-linecap="round"
           id="path158" />
        <path
           opacity="0.3"
           d="m 84.4085,106.726 2.2912,-0.357"
           stroke="#000000"
           stroke-miterlimit="10"
           stroke-linecap="round"
           id="path160" />
        <path
           opacity="0.3"
           d="m 88.9822,106.012 2.2912,-0.356"
           stroke="#000000"
           stroke-miterlimit="10"
           stroke-linecap="round"
           id="path162" />
        <path
           opacity="0.3"
           d="m 93.5646,105.299 2.2825,-0.348"
           stroke="#000000"
           stroke-miterlimit="10"
           stroke-linecap="round"
           id="path164" />
        <path
           opacity="0.3"
           d="m 98.1383,104.594 2.2907,-0.356"
           stroke="#000000"
           stroke-miterlimit="10"
           stroke-linecap="round"
           id="path166" />
        <path
           opacity="0.3"
           d="m 102.721,103.881 2.282,-0.357"
           stroke="#000000"
           stroke-miterlimit="10"
           stroke-linecap="round"
           id="path168" />
        <path
           opacity="0.3"
           d="m 107.294,103.168 2.292,-0.357"
           stroke="#000000"
           stroke-miterlimit="10"
           stroke-linecap="round"
           id="path170" />
        <path
           opacity="0.3"
           d="m 111.868,102.455 2.291,-0.348"
           stroke="#000000"
           stroke-miterlimit="10"
           stroke-linecap="round"
           id="path172" />
        <path
           opacity="0.3"
           d="m 84.8963,109.875 2.2912,-0.357"
           stroke="#000000"
           stroke-miterlimit="10"
           stroke-linecap="round"
           id="path174" />
        <path
           opacity="0.3"
           d="m 89.4787,109.161 2.2825,-0.356"
           stroke="#000000"
           stroke-miterlimit="10"
           stroke-linecap="round"
           id="path176" />
        <path
           opacity="0.3"
           d="m 94.0524,108.448 2.2912,-0.357"
           stroke="#000000"
           stroke-miterlimit="10"
           stroke-linecap="round"
           id="path178" />
        <path
           opacity="0.3"
           d="m 98.6261,107.743 2.2909,-0.356"
           stroke="#000000"
           stroke-miterlimit="10"
           stroke-linecap="round"
           id="path180" />
        <path
           opacity="0.3"
           d="m 103.209,107.03 2.291,-0.357"
           stroke="#000000"
           stroke-miterlimit="10"
           stroke-linecap="round"
           id="path182" />
        <path
           opacity="0.3"
           d="m 107.782,106.317 2.291,-0.357"
           stroke="#000000"
           stroke-miterlimit="10"
           stroke-linecap="round"
           id="path184" />
        <path
           opacity="0.3"
           d="m 112.365,105.603 2.282,-0.356"
           stroke="#000000"
           stroke-miterlimit="10"
           stroke-linecap="round"
           id="path186" />
        <path
           opacity="0.3"
           d="m 85.3929,113.024 2.2825,-0.357"
           stroke="#000000"
           stroke-miterlimit="10"
           stroke-linecap="round"
           id="path188" />
        <path
           opacity="0.3"
           d="m 89.9666,112.31 2.2912,-0.356"
           stroke="#000000"
           stroke-miterlimit="10"
           stroke-linecap="round"
           id="path190" />
        <path
           opacity="0.3"
           d="m 94.5403,111.597 2.2912,-0.357"
           stroke="#000000"
           stroke-miterlimit="10"
           stroke-linecap="round"
           id="path192" />
        <path
           opacity="0.3"
           d="m 99.1227,110.884 2.2823,-0.348"
           stroke="#000000"
           stroke-miterlimit="10"
           stroke-linecap="round"
           id="path194" />
        <path
           opacity="0.3"
           d="m 103.696,110.179 2.292,-0.357"
           stroke="#000000"
           stroke-miterlimit="10"
           stroke-linecap="round"
           id="path196" />
        <path
           opacity="0.3"
           d="m 108.279,109.466 2.282,-0.357"
           stroke="#000000"
           stroke-miterlimit="10"
           stroke-linecap="round"
           id="path198" />
        <path
           opacity="0.3"
           d="m 112.852,108.752 2.292,-0.356"
           stroke="#000000"
           stroke-miterlimit="10"
           stroke-linecap="round"
           id="path200" />
        <path
           opacity="0.3"
           d="m 82.7794,96.2958 2.2912,-0.3567"
           stroke="#000000"
           stroke-miterlimit="10"
           stroke-linecap="round"
           id="path202" />
        <path
           opacity="0.3"
           d="m 87.3618,95.5911 2.2825,-0.3566"
           stroke="#000000"
           stroke-miterlimit="10"
           stroke-linecap="round"
           id="path204" />
        <path
           opacity="0.3"
           d="m 91.9355,94.8779 2.2912,-0.3567"
           stroke="#000000"
           stroke-miterlimit="10"
           stroke-linecap="round"
           id="path206" />
        <path
           opacity="0.3"
           d="m 96.5179,94.1645 2.2824,-0.3566"
           stroke="#000000"
           stroke-miterlimit="10"
           stroke-linecap="round"
           id="path208" />
        <path
           opacity="0.3"
           d="m 101.092,93.4513 2.291,-0.3567"
           stroke="#000000"
           stroke-miterlimit="10"
           stroke-linecap="round"
           id="path210" />
        <path
           opacity="0.3"
           d="M 105.665,92.7379 107.956,92.39"
           stroke="#000000"
           stroke-miterlimit="10"
           stroke-linecap="round"
           id="path212" />
        <path
           opacity="0.3"
           d="m 110.248,92.0334 2.282,-0.3567"
           stroke="#000000"
           stroke-miterlimit="10"
           stroke-linecap="round"
           id="path214" />
        <path
           opacity="0.3"
           d="m 113.009,93.4164 -30.1512,4.68"
           stroke="#000000"
           stroke-miterlimit="10"
           stroke-linecap="round"
           id="path216" />
        <path
           opacity="0.3"
           d="M 91.2298,90.9547 102.86,89.1453"
           stroke="#000000"
           stroke-miterlimit="10"
           stroke-linecap="round"
           id="path218" />
        <path
           opacity="0.3"
           d="M 76.7857,123.419 205.049,103.49"
           stroke="#000000"
           stroke-miterlimit="10"
           stroke-linecap="round"
           id="path220" />
        <path
           opacity="0.3"
           d="M 78.3886,133.735 206.652,113.806"
           stroke="#000000"
           stroke-miterlimit="10"
           stroke-linecap="round"
           id="path222" />
        <path
           opacity="0.3"
           d="M 80.0003,144.052 208.264,124.115"
           stroke="#000000"
           stroke-miterlimit="10"
           stroke-linecap="round"
           id="path224" />
        <path
           opacity="0.3"
           d="M 81.6033,154.36 209.867,134.431"
           stroke="#000000"
           stroke-miterlimit="10"
           stroke-linecap="round"
           id="path226" />
        <path
           opacity="0.3"
           d="M 83.215,164.677 211.479,144.748"
           stroke="#000000"
           stroke-miterlimit="10"
           stroke-linecap="round"
           id="path228" />
        <path
           opacity="0.3"
           d="M 84.8179,174.994 213.082,155.056"
           stroke="#000000"
           stroke-miterlimit="10"
           stroke-linecap="round"
           id="path230" />
        <path
           opacity="0.3"
           d="M 86.4296,185.302 214.693,165.373"
           stroke="#000000"
           stroke-miterlimit="10"
           stroke-linecap="round"
           id="path232" />
        <path
           opacity="0.3"
           d="M 88.0413,195.619 216.296,175.69"
           stroke="#000000"
           stroke-miterlimit="10"
           stroke-linecap="round"
           id="path234" />
        <path
           opacity="0.3"
           d="M 89.6443,205.935 217.908,186.007"
           stroke="#000000"
           stroke-miterlimit="10"
           stroke-linecap="round"
           id="path236" />
        <path
           opacity="0.3"
           d="M 91.256,216.252 219.511,196.315"
           stroke="#000000"
           stroke-miterlimit="10"
           stroke-linecap="round"
           id="path238" />
        <path
           opacity="0.3"
           d="M 92.8589,226.56 221.123,206.631"
           stroke="#000000"
           stroke-miterlimit="10"
           stroke-linecap="round"
           id="path240" />
        <path
           opacity="0.3"
           d="M 94.4706,236.877 222.725,216.948"
           stroke="#000000"
           stroke-miterlimit="10"
           stroke-linecap="round"
           id="path242" />
        <path
           opacity="0.3"
           d="M 96.0736,247.194 224.337,227.265"
           stroke="#000000"
           stroke-miterlimit="10"
           stroke-linecap="round"
           id="path244" />
        <path
           opacity="0.3"
           d="M 99.8893,271.69 228.153,251.761"
           stroke="#000000"
           stroke-miterlimit="10"
           stroke-linecap="round"
           id="path246" />
        <path
           opacity="0.3"
           d="M 101.161,279.858 229.425,259.92"
           stroke="#000000"
           stroke-miterlimit="10"
           stroke-linecap="round"
           id="path248" />
        <path
           opacity="0.3"
           d="M 102.442,288.017 230.697,268.088"
           stroke="#000000"
           stroke-miterlimit="10"
           stroke-linecap="round"
           id="path250" />
      </g>
      <path
         d="m 95.0804,133.344 c 0,0 -10.9333,11.822 -4.6172,9.96 6.316,-1.861 14.9758,-14.214 13.1378,-9.081 -1.839,5.132 -1.743,8.629 1.228,5.088 2.971,-3.54 4.635,-4.245 4.042,-2.392 -0.592,1.853 1.856,0.6 1.856,0.6 0,0 6.098,-3.584 5.453,-1.739 -0.644,1.844 -1.019,1.913 0.706,1.652 l 5.593,-0.87 c 0,0 -0.366,0.496 4.8,-0.304 5.166,-0.8 7.187,-2.001 9.766,-2.401"
         stroke="#1a2e35"
         stroke-miterlimit="10"
         stroke-linecap="round"
         id="path254" />
      <path
         d="m 90.1147,149.524 c 0,0 8.433,-5.272 9.4959,-4.124 1.0624,1.149 -0.3921,3.149 3.4154,2.114 3.807,-1.035 7.274,-4.21 7.544,-2.496 0.27,1.713 2.718,0.461 2.718,0.461 l 2.152,-0.331 c 0,0 3.938,-0.174 5.166,-0.809 1.228,-0.635 2.5,-6.55 1.559,1.523 -0.941,8.072 -4.242,1.096 3.607,-2.323 7.849,-3.419 9.304,0.313 9.304,0.313 0.867,-0.182 1.712,-0.459 2.518,-0.826 1.655,-0.696 3.101,-2.688 4.661,-1.166 1.559,1.522 4.356,-3.314 4.356,-3.314 1.088,0.203 2.162,0.476 3.214,0.818 1.009,0.351 2.081,0.485 3.145,0.391 1.315,0.05 2.632,-0.008 3.938,-0.174 1.742,-0.261 3.18,-2.253 4.6,-1.592 1.42,0.661 3.572,-5.393 2.491,1.818 -1.08,7.211 -8.067,10.491 -5.227,6.089 2.507,-3.852 5.727,-7.191 9.487,-9.838 3.18,-2.253 4.104,-1.957 4.809,-0.304 0.706,1.652 1.56,1.522 3.206,0.817 1.647,-0.704 0.235,-1.348 1.655,-0.696 0.958,0.543 2.092,0.684 3.154,0.392 1.289,-0.2 -4.765,3.384 1.289,-0.2 6.055,-3.584 8.216,-17.998 5.045,-10.03 -3.171,7.968 -1.969,9.995 2.256,8.908"
         stroke="#1a2e35"
         stroke-miterlimit="10"
         stroke-linecap="round"
         id="path256" />
      <path
         d="m 91.0294,163.903 c 0,0 10.3496,-9.969 9.7226,-11.195 -0.627,-1.227 -3.9466,0.173 -6.3511,4.514 -2.4044,4.341 -0.7231,6.707 5.7671,3.062 6.49,-3.645 -2.9445,0.87 3.711,1.183 6.656,0.313 8.634,-3.984 8.834,-2.696 0.2,1.287 -2.021,1.2 3.215,0.826 5.236,-0.374 2.674,-2.61 8.041,-2.131 5.366,0.478 7.753,-1.201 7.753,-1.201 l 3.441,-0.539 c 0,0 -6.969,0.644 2.082,-0.766 9.052,-1.409 13.025,-12.587 8.669,-6.628 -4.356,5.959 -2.309,7.829 2.16,5.385 l 4.469,-2.453 c 0,0 5.654,-6.159 2.98,2.174 -2.675,8.334 -5.82,2.227 4.103,-1.957 9.923,-4.184 9.67,-0.183 12.981,-1.575 3.31,-1.391 2.77,-4.827 4.965,-2.087 2.196,2.74 2.056,1.879 5.497,1.339 3.442,-0.539 2.518,-0.826 5.532,-1.296 l 6.43,-1"
         stroke="#1a2e35"
         stroke-miterlimit="10"
         stroke-linecap="round"
         id="path258" />
      <path
         d="m 92.7718,194.888 c 0,0 7.2134,-4.645 8.3632,-11.422 1.15,-6.776 -4.5387,2.019 -3.9202,11.613 0.6185,9.595 -2.7616,-3.54 7.3002,-6.863 10.062,-3.323 -0.871,2.784 0.244,4.349 1.115,1.566 9.365,-4.975 9.27,-2.757 -0.096,2.218 1.742,2.801 6.821,-1.505 5.079,-4.306 -3.189,-3.48 -3.581,-0.322 -0.392,3.158 2.056,1.879 8.311,-0.409 6.255,-2.287 0.131,0.87 4.008,0.253 3.877,-0.618 12.405,-8.09 10.724,-4.741 -1.681,3.349 -0.061,5.289 1.821,3.236 1.882,-2.053 5.889,-7.516 6.22,-5.367 0.207,1.266 -0.07,2.563 -0.775,3.636"
         stroke="#1a2e35"
         stroke-miterlimit="10"
         stroke-linecap="round"
         id="path260" />
      <path
         d="m 166.003,179.961 c 0,0 1.167,0.557 3.642,-0.444 2.474,-1 7.283,-6.28 7.335,-6.959 0.052,-0.678 -10.585,3.767 -10.977,7.403 z"
         fill="#ffffff"
         stroke="#1a2e35"
         stroke-miterlimit="10"
         stroke-linecap="round"
         id="path386" />
    </g>
    <path
       opacity="0.26"
       d="m 33.5926,198.663 c 2.4455,-0.1 4.8728,-0.464 7.2395,-1.087"
       stroke="#ffffff"
       stroke-linecap="round"
       stroke-linejoin="round"
       id="path274" />
    <path
       d="m 10.489,196.097 c 0,0 19.6625,2.688 23.1036,2.566"
       stroke="#ffffff"
       stroke-linecap="round"
       stroke-linejoin="round"
       id="path276" />
  </g>
  <defs
     id="defs397">
    <clipPath
       id="clip0">
      <rect
         width="324"
         height="336"
         fill="white"
         id="rect394" />
    </clipPath>
  </defs>
</svg>
